G04 #@! TF.GenerationSoftware,KiCad,Pcbnew,(5.1.2)-1*
G04 #@! TF.CreationDate,2019-11-15T07:12:07-08:00*
G04 #@! TF.ProjectId,AppleIIJoystick,4170706c-6549-4494-9a6f-79737469636b,rev?*
G04 #@! TF.SameCoordinates,Original*
G04 #@! TF.FileFunction,Legend,Bot*
G04 #@! TF.FilePolarity,Positive*
%FSLAX46Y46*%
G04 Gerber Fmt 4.6, Leading zero omitted, Abs format (unit mm)*
G04 Created by KiCad (PCBNEW (5.1.2)-1) date 2019-11-15 07:12:07*
%MOMM*%
%LPD*%
G04 APERTURE LIST*
%ADD10C,1.702000*%
%ADD11C,2.002000*%
%ADD12C,4.102000*%
%ADD13C,1.626000*%
%ADD14C,2.402000*%
%ADD15O,1.702000X1.702000*%
%ADD16C,1.102000*%
%ADD17C,2.102000*%
G04 APERTURE END LIST*
%LPC*%
D10*
X142717520Y-44924980D03*
X142717520Y-42424980D03*
X145356580Y-44924980D03*
X145356580Y-42424980D03*
X147995640Y-42424980D03*
X147995640Y-44924980D03*
X150634700Y-42424980D03*
X150634700Y-44924980D03*
X160229360Y-44941580D03*
X160229360Y-42441580D03*
X162867340Y-42445300D03*
X162867340Y-44945300D03*
X165506400Y-44945300D03*
X165506400Y-42445300D03*
X168145460Y-42445300D03*
X168145460Y-44945300D03*
D11*
X118500000Y-52000000D03*
X121270000Y-52000000D03*
X124040000Y-52000000D03*
X126810000Y-52000000D03*
X129580000Y-52000000D03*
X119885000Y-49160000D03*
X122655000Y-49160000D03*
X125425000Y-49160000D03*
X128195000Y-49160000D03*
D12*
X111545000Y-50580000D03*
X136535000Y-50580000D03*
X147810000Y-50457460D03*
D13*
X144000000Y-55537460D03*
X144000000Y-78397460D03*
X144000000Y-75857460D03*
X166860000Y-78397460D03*
X166860000Y-75857460D03*
X166860000Y-55537460D03*
X166860000Y-52997460D03*
X143994920Y-52987300D03*
D12*
X163050000Y-50457460D03*
X163050000Y-80937460D03*
X147810000Y-80937460D03*
D14*
X128994920Y-76992380D03*
X138994920Y-74492380D03*
X138994920Y-79492380D03*
D10*
X139000000Y-85000000D03*
D15*
X128840000Y-85000000D03*
X128795780Y-69000000D03*
D10*
X138955780Y-69000000D03*
D14*
X138994920Y-63492380D03*
X138994920Y-58492380D03*
X128994920Y-60992380D03*
D10*
X84000000Y-75500000D03*
D15*
X94160000Y-75500000D03*
X115249960Y-75496420D03*
D10*
X105089960Y-75496420D03*
D16*
X92906340Y-62130000D03*
X85286340Y-67210000D03*
D17*
X87826340Y-64670000D03*
X92906340Y-69750000D03*
X114000000Y-69750000D03*
X108920000Y-64670000D03*
D16*
X106380000Y-67210000D03*
X114000000Y-62130000D03*
M02*
