M48
INCH,TZ
T1C0.0300
T2C0.0315
T3C0.0394
T4C0.0480
T5C0.0512
T6C0.0866
T7C0.1201
%
G90
G05
T1
X56691Y-20861
X56693Y-21865
X56693Y-29865
X56693Y-30865
X65693Y-20865
X65693Y-21865
X65693Y-29865
X65693Y-30865
T2
X57227Y-16703
X57227Y-17687
X59305Y-16703
X59305Y-17687
X65160Y-16711
X65160Y-17695
X50707Y-27165
X54707Y-27165
X56188Y-16703
X56188Y-17687
X41374Y-29723
X45374Y-29723
X58266Y-16703
X58266Y-17687
X64121Y-16711
X64121Y-17695
X50724Y-33465
X54724Y-33465
X33071Y-29724
X37071Y-29724
X63082Y-16709
X63082Y-17694
X66199Y-16711
X66199Y-17695
T3
X46654Y-20472
X47199Y-19354
X47744Y-20472
X48289Y-19354
X48835Y-20472
X49380Y-19354
X49925Y-20472
X50470Y-19354
X51016Y-20472
T4
X42882Y-25461
X44882Y-27461
X34577Y-25461
X36577Y-27461
T5
X50785Y-30312
X54722Y-29328
X54722Y-31296
X50785Y-24013
X54722Y-23028
X54722Y-24997
T6
X58193Y-19865
X58193Y-31865
X64193Y-19865
X64193Y-31865
T7
X43915Y-19913
X53754Y-19913
T0
M30
