G04 #@! TF.GenerationSoftware,KiCad,Pcbnew,(5.1.2)-1*
G04 #@! TF.CreationDate,2019-11-15T07:26:44-08:00*
G04 #@! TF.ProjectId,AppleIIJoystick,4170706c-6549-4494-9a6f-79737469636b,rev?*
G04 #@! TF.SameCoordinates,Original*
G04 #@! TF.FileFunction,Legend,Top*
G04 #@! TF.FilePolarity,Positive*
%FSLAX46Y46*%
G04 Gerber Fmt 4.6, Leading zero omitted, Abs format (unit mm)*
G04 Created by KiCad (PCBNEW (5.1.2)-1) date 2019-11-15 07:26:44*
%MOMM*%
%LPD*%
G04 APERTURE LIST*
%ADD10C,0.120000*%
%ADD11C,0.150000*%
%ADD12C,1.702000*%
%ADD13C,2.002000*%
%ADD14C,4.102000*%
%ADD15C,1.626000*%
%ADD16C,2.402000*%
%ADD17O,1.702000X1.702000*%
%ADD18C,1.102000*%
%ADD19C,2.102000*%
G04 APERTURE END LIST*
D10*
X122105420Y-77122020D02*
X121876820Y-77005180D01*
X122224800Y-77327760D02*
X121457720Y-76995020D01*
X121457720Y-76995020D02*
X122194320Y-76619100D01*
X122194320Y-76619100D02*
X122189240Y-77223620D01*
X122189240Y-77223620D02*
X121701560Y-77015340D01*
X121701560Y-77015340D02*
X121881900Y-76860400D01*
X121881900Y-76860400D02*
X122166380Y-76748640D01*
X122166380Y-76748640D02*
X122105420Y-77122020D01*
X122229880Y-76563220D02*
X122224800Y-77327760D01*
X126436120Y-76911200D02*
X126304040Y-76868020D01*
X125999240Y-76832460D02*
X126436120Y-76911200D01*
X126182120Y-76974700D02*
X125999240Y-76832460D01*
X125978920Y-77122020D02*
X126182120Y-76974700D01*
X125956060Y-76710540D02*
X125978920Y-77122020D01*
X126372620Y-76977240D02*
X125956060Y-76710540D01*
X125884940Y-77249020D02*
X126372620Y-76977240D01*
X121876820Y-77005180D02*
X122092720Y-76855320D01*
X122092720Y-76855320D02*
X122031760Y-77043280D01*
X121290460Y-76950820D02*
X122290460Y-77450820D01*
X122290460Y-77450820D02*
X122290460Y-76450820D01*
X125790460Y-77450820D02*
X125790460Y-76450820D01*
X122290460Y-76450820D02*
X121290460Y-76950820D01*
X121290460Y-76950820D02*
X126790460Y-76950820D01*
X125846840Y-77348080D02*
X126494540Y-77012800D01*
X125790460Y-76450820D02*
X126790460Y-76950820D01*
X125790460Y-77450820D02*
X126790460Y-76950820D01*
X126494540Y-77012800D02*
X126509780Y-76901040D01*
X126509780Y-76901040D02*
X125879860Y-76581000D01*
X125879860Y-76581000D02*
X125884940Y-77249020D01*
X126790460Y-76950820D02*
X121290460Y-76950820D01*
X125229620Y-62974220D02*
X125417580Y-63035180D01*
X125379480Y-63190120D02*
X125229620Y-62974220D01*
X125496320Y-62961520D02*
X125379480Y-63190120D01*
X125122940Y-62900560D02*
X125496320Y-62961520D01*
X125234700Y-63185040D02*
X125122940Y-62900560D01*
X125389640Y-63365380D02*
X125234700Y-63185040D01*
X125597920Y-62877700D02*
X125389640Y-63365380D01*
X124993400Y-62872620D02*
X125597920Y-62877700D01*
X125369320Y-63609220D02*
X124993400Y-62872620D01*
X125702060Y-62842140D02*
X125369320Y-63609220D01*
X124937520Y-62837060D02*
X125702060Y-62842140D01*
X125285500Y-58630820D02*
X125242320Y-58762900D01*
X125206760Y-59067700D02*
X125285500Y-58630820D01*
X125349000Y-58884820D02*
X125206760Y-59067700D01*
X125496320Y-59088020D02*
X125349000Y-58884820D01*
X125084840Y-59110880D02*
X125496320Y-59088020D01*
X125351540Y-58694320D02*
X125084840Y-59110880D01*
X125623320Y-59182000D02*
X125351540Y-58694320D01*
X124955300Y-59187080D02*
X125623320Y-59182000D01*
X125275340Y-58557160D02*
X124955300Y-59187080D01*
X125387100Y-58572400D02*
X125275340Y-58557160D01*
X125722380Y-59220100D02*
X125387100Y-58572400D01*
X125825120Y-59276480D02*
X125325120Y-58276480D01*
X124825120Y-59276480D02*
X125325120Y-58276480D01*
X125825120Y-59276480D02*
X124825120Y-59276480D01*
X125325120Y-63776480D02*
X125325120Y-58276480D01*
X124825120Y-62776480D02*
X125325120Y-63776480D01*
X125825120Y-62776480D02*
X124825120Y-62776480D01*
X125325120Y-63776480D02*
X125825120Y-62776480D01*
X125325120Y-58276480D02*
X125325120Y-63776480D01*
D11*
X81335479Y-86854326D02*
X81811669Y-86854326D01*
X81240240Y-87140040D02*
X81573574Y-86140040D01*
X81906907Y-87140040D01*
X82240240Y-87140040D02*
X82240240Y-86140040D01*
X82621193Y-86140040D01*
X82716431Y-86187660D01*
X82764050Y-86235279D01*
X82811669Y-86330517D01*
X82811669Y-86473374D01*
X82764050Y-86568612D01*
X82716431Y-86616231D01*
X82621193Y-86663850D01*
X82240240Y-86663850D01*
X83240240Y-87140040D02*
X83240240Y-86140040D01*
X83621193Y-86140040D01*
X83716431Y-86187660D01*
X83764050Y-86235279D01*
X83811669Y-86330517D01*
X83811669Y-86473374D01*
X83764050Y-86568612D01*
X83716431Y-86616231D01*
X83621193Y-86663850D01*
X83240240Y-86663850D01*
X84716431Y-87140040D02*
X84240240Y-87140040D01*
X84240240Y-86140040D01*
X85049764Y-86616231D02*
X85383098Y-86616231D01*
X85525955Y-87140040D02*
X85049764Y-87140040D01*
X85049764Y-86140040D01*
X85525955Y-86140040D01*
X86621193Y-87473374D02*
X86859288Y-87473374D01*
X86859288Y-86044802D01*
X86621193Y-86044802D01*
X87668812Y-87473374D02*
X87430717Y-87473374D01*
X87430717Y-86044802D01*
X87668812Y-86044802D01*
X89097383Y-86140040D02*
X89097383Y-86854326D01*
X89049764Y-86997183D01*
X88954526Y-87092421D01*
X88811669Y-87140040D01*
X88716431Y-87140040D01*
X89764050Y-86140040D02*
X89954526Y-86140040D01*
X90049764Y-86187660D01*
X90145002Y-86282898D01*
X90192621Y-86473374D01*
X90192621Y-86806707D01*
X90145002Y-86997183D01*
X90049764Y-87092421D01*
X89954526Y-87140040D01*
X89764050Y-87140040D01*
X89668812Y-87092421D01*
X89573574Y-86997183D01*
X89525955Y-86806707D01*
X89525955Y-86473374D01*
X89573574Y-86282898D01*
X89668812Y-86187660D01*
X89764050Y-86140040D01*
X90811669Y-86663850D02*
X90811669Y-87140040D01*
X90478336Y-86140040D02*
X90811669Y-86663850D01*
X91145002Y-86140040D01*
X91430717Y-87092421D02*
X91573574Y-87140040D01*
X91811669Y-87140040D01*
X91906907Y-87092421D01*
X91954526Y-87044802D01*
X92002145Y-86949564D01*
X92002145Y-86854326D01*
X91954526Y-86759088D01*
X91906907Y-86711469D01*
X91811669Y-86663850D01*
X91621193Y-86616231D01*
X91525955Y-86568612D01*
X91478336Y-86520993D01*
X91430717Y-86425755D01*
X91430717Y-86330517D01*
X91478336Y-86235279D01*
X91525955Y-86187660D01*
X91621193Y-86140040D01*
X91859288Y-86140040D01*
X92002145Y-86187660D01*
X92287860Y-86140040D02*
X92859288Y-86140040D01*
X92573574Y-87140040D02*
X92573574Y-86140040D01*
X93192621Y-87140040D02*
X93192621Y-86140040D01*
X94240240Y-87044802D02*
X94192621Y-87092421D01*
X94049764Y-87140040D01*
X93954526Y-87140040D01*
X93811669Y-87092421D01*
X93716431Y-86997183D01*
X93668812Y-86901945D01*
X93621193Y-86711469D01*
X93621193Y-86568612D01*
X93668812Y-86378136D01*
X93716431Y-86282898D01*
X93811669Y-86187660D01*
X93954526Y-86140040D01*
X94049764Y-86140040D01*
X94192621Y-86187660D01*
X94240240Y-86235279D01*
X94668812Y-87140040D02*
X94668812Y-86140040D01*
X95240240Y-87140040D02*
X94811669Y-86568612D01*
X95240240Y-86140040D02*
X94668812Y-86711469D01*
D10*
X141597520Y-45294980D02*
X141597520Y-42054980D01*
X143837520Y-45294980D02*
X143837520Y-42054980D01*
X141597520Y-45294980D02*
X141662520Y-45294980D01*
X143772520Y-45294980D02*
X143837520Y-45294980D01*
X141597520Y-42054980D02*
X141662520Y-42054980D01*
X143772520Y-42054980D02*
X143837520Y-42054980D01*
X144236580Y-45294980D02*
X144236580Y-42054980D01*
X146476580Y-45294980D02*
X146476580Y-42054980D01*
X144236580Y-45294980D02*
X144301580Y-45294980D01*
X146411580Y-45294980D02*
X146476580Y-45294980D01*
X144236580Y-42054980D02*
X144301580Y-42054980D01*
X146411580Y-42054980D02*
X146476580Y-42054980D01*
X149050640Y-42054980D02*
X149115640Y-42054980D01*
X146875640Y-42054980D02*
X146940640Y-42054980D01*
X149050640Y-45294980D02*
X149115640Y-45294980D01*
X146875640Y-45294980D02*
X146940640Y-45294980D01*
X149115640Y-45294980D02*
X149115640Y-42054980D01*
X146875640Y-45294980D02*
X146875640Y-42054980D01*
X151689700Y-42054980D02*
X151754700Y-42054980D01*
X149514700Y-42054980D02*
X149579700Y-42054980D01*
X151689700Y-45294980D02*
X151754700Y-45294980D01*
X149514700Y-45294980D02*
X149579700Y-45294980D01*
X151754700Y-45294980D02*
X151754700Y-42054980D01*
X149514700Y-45294980D02*
X149514700Y-42054980D01*
X159109360Y-45311580D02*
X159109360Y-42071580D01*
X161349360Y-45311580D02*
X161349360Y-42071580D01*
X159109360Y-45311580D02*
X159174360Y-45311580D01*
X161284360Y-45311580D02*
X161349360Y-45311580D01*
X159109360Y-42071580D02*
X159174360Y-42071580D01*
X161284360Y-42071580D02*
X161349360Y-42071580D01*
X163922340Y-42075300D02*
X163987340Y-42075300D01*
X161747340Y-42075300D02*
X161812340Y-42075300D01*
X163922340Y-45315300D02*
X163987340Y-45315300D01*
X161747340Y-45315300D02*
X161812340Y-45315300D01*
X163987340Y-45315300D02*
X163987340Y-42075300D01*
X161747340Y-45315300D02*
X161747340Y-42075300D01*
X164386400Y-45315300D02*
X164386400Y-42075300D01*
X166626400Y-45315300D02*
X166626400Y-42075300D01*
X164386400Y-45315300D02*
X164451400Y-45315300D01*
X166561400Y-45315300D02*
X166626400Y-45315300D01*
X164386400Y-42075300D02*
X164451400Y-42075300D01*
X166561400Y-42075300D02*
X166626400Y-42075300D01*
X169200460Y-42075300D02*
X169265460Y-42075300D01*
X167025460Y-42075300D02*
X167090460Y-42075300D01*
X169200460Y-45315300D02*
X169265460Y-45315300D01*
X167025460Y-45315300D02*
X167090460Y-45315300D01*
X169265460Y-45315300D02*
X169265460Y-42075300D01*
X167025460Y-45315300D02*
X167025460Y-42075300D01*
D11*
X108634640Y-43579900D02*
X108634640Y-41080540D01*
X139444840Y-44380000D02*
X139444840Y-41078000D01*
X139444840Y-44380000D02*
X139444840Y-53574800D01*
X108634640Y-43579900D02*
X108634640Y-53569720D01*
X108634640Y-41080540D02*
X139444840Y-41078000D01*
X139444840Y-53574800D02*
X108634640Y-53569720D01*
X141460000Y-47920000D02*
X169400000Y-47920000D01*
X169400000Y-47920000D02*
X169400000Y-83480000D01*
X169400000Y-83480000D02*
X141460000Y-83480000D01*
X141460000Y-83480000D02*
X141460000Y-47920000D01*
X138992412Y-77007620D02*
G75*
G03X138992412Y-77007620I-5001312J0D01*
G01*
D10*
X137190000Y-86370000D02*
X137190000Y-83630000D01*
X137190000Y-83630000D02*
X130650000Y-83630000D01*
X130650000Y-83630000D02*
X130650000Y-86370000D01*
X130650000Y-86370000D02*
X137190000Y-86370000D01*
X137960000Y-85000000D02*
X137190000Y-85000000D01*
X129880000Y-85000000D02*
X130650000Y-85000000D01*
X129835780Y-69000000D02*
X130605780Y-69000000D01*
X137915780Y-69000000D02*
X137145780Y-69000000D01*
X130605780Y-70370000D02*
X137145780Y-70370000D01*
X130605780Y-67630000D02*
X130605780Y-70370000D01*
X137145780Y-67630000D02*
X130605780Y-67630000D01*
X137145780Y-70370000D02*
X137145780Y-67630000D01*
D11*
X138992412Y-61007620D02*
G75*
G03X138992412Y-61007620I-5001312J0D01*
G01*
D10*
X85810000Y-74130000D02*
X85810000Y-76870000D01*
X85810000Y-76870000D02*
X92350000Y-76870000D01*
X92350000Y-76870000D02*
X92350000Y-74130000D01*
X92350000Y-74130000D02*
X85810000Y-74130000D01*
X85040000Y-75500000D02*
X85810000Y-75500000D01*
X93120000Y-75500000D02*
X92350000Y-75500000D01*
X114209960Y-75496420D02*
X113439960Y-75496420D01*
X106129960Y-75496420D02*
X106899960Y-75496420D01*
X113439960Y-74126420D02*
X106899960Y-74126420D01*
X113439960Y-76866420D02*
X113439960Y-74126420D01*
X106899960Y-76866420D02*
X113439960Y-76866420D01*
X106899960Y-74126420D02*
X106899960Y-76866420D01*
D11*
X95304100Y-72140140D02*
X95304100Y-59739860D01*
X82903820Y-72140140D02*
X95304100Y-72140140D01*
X82903820Y-59739860D02*
X82903820Y-72140140D01*
X95304100Y-59739860D02*
X82903820Y-59739860D01*
X116397760Y-59739860D02*
X103997480Y-59739860D01*
X103997480Y-59739860D02*
X103997480Y-72140140D01*
X103997480Y-72140140D02*
X116397760Y-72140140D01*
X116397760Y-72140140D02*
X116397760Y-59739860D01*
X143107142Y-47007986D02*
X143154761Y-47055605D01*
X143202380Y-47198462D01*
X143202380Y-47293700D01*
X143154761Y-47436558D01*
X143059523Y-47531796D01*
X142964285Y-47579415D01*
X142773809Y-47627034D01*
X142630952Y-47627034D01*
X142440476Y-47579415D01*
X142345238Y-47531796D01*
X142250000Y-47436558D01*
X142202380Y-47293700D01*
X142202380Y-47198462D01*
X142250000Y-47055605D01*
X142297619Y-47007986D01*
X143202380Y-46055605D02*
X143202380Y-46627034D01*
X143202380Y-46341320D02*
X142202380Y-46341320D01*
X142345238Y-46436558D01*
X142440476Y-46531796D01*
X142488095Y-46627034D01*
X145805122Y-47041006D02*
X145852741Y-47088625D01*
X145900360Y-47231482D01*
X145900360Y-47326720D01*
X145852741Y-47469578D01*
X145757503Y-47564816D01*
X145662265Y-47612435D01*
X145471789Y-47660054D01*
X145328932Y-47660054D01*
X145138456Y-47612435D01*
X145043218Y-47564816D01*
X144947980Y-47469578D01*
X144900360Y-47326720D01*
X144900360Y-47231482D01*
X144947980Y-47088625D01*
X144995599Y-47041006D01*
X144995599Y-46660054D02*
X144947980Y-46612435D01*
X144900360Y-46517197D01*
X144900360Y-46279101D01*
X144947980Y-46183863D01*
X144995599Y-46136244D01*
X145090837Y-46088625D01*
X145186075Y-46088625D01*
X145328932Y-46136244D01*
X145900360Y-46707673D01*
X145900360Y-46088625D01*
X148401502Y-47007986D02*
X148449121Y-47055605D01*
X148496740Y-47198462D01*
X148496740Y-47293700D01*
X148449121Y-47436558D01*
X148353883Y-47531796D01*
X148258645Y-47579415D01*
X148068169Y-47627034D01*
X147925312Y-47627034D01*
X147734836Y-47579415D01*
X147639598Y-47531796D01*
X147544360Y-47436558D01*
X147496740Y-47293700D01*
X147496740Y-47198462D01*
X147544360Y-47055605D01*
X147591979Y-47007986D01*
X147496740Y-46674653D02*
X147496740Y-46055605D01*
X147877693Y-46388939D01*
X147877693Y-46246081D01*
X147925312Y-46150843D01*
X147972931Y-46103224D01*
X148068169Y-46055605D01*
X148306264Y-46055605D01*
X148401502Y-46103224D01*
X148449121Y-46150843D01*
X148496740Y-46246081D01*
X148496740Y-46531796D01*
X148449121Y-46627034D01*
X148401502Y-46674653D01*
X151000422Y-47041006D02*
X151048041Y-47088625D01*
X151095660Y-47231482D01*
X151095660Y-47326720D01*
X151048041Y-47469578D01*
X150952803Y-47564816D01*
X150857565Y-47612435D01*
X150667089Y-47660054D01*
X150524232Y-47660054D01*
X150333756Y-47612435D01*
X150238518Y-47564816D01*
X150143280Y-47469578D01*
X150095660Y-47326720D01*
X150095660Y-47231482D01*
X150143280Y-47088625D01*
X150190899Y-47041006D01*
X150428994Y-46183863D02*
X151095660Y-46183863D01*
X150048041Y-46421959D02*
X150762327Y-46660054D01*
X150762327Y-46041006D01*
X160552402Y-47060146D02*
X160600021Y-47107765D01*
X160647640Y-47250622D01*
X160647640Y-47345860D01*
X160600021Y-47488718D01*
X160504783Y-47583956D01*
X160409545Y-47631575D01*
X160219069Y-47679194D01*
X160076212Y-47679194D01*
X159885736Y-47631575D01*
X159790498Y-47583956D01*
X159695260Y-47488718D01*
X159647640Y-47345860D01*
X159647640Y-47250622D01*
X159695260Y-47107765D01*
X159742879Y-47060146D01*
X159647640Y-46155384D02*
X159647640Y-46631575D01*
X160123831Y-46679194D01*
X160076212Y-46631575D01*
X160028593Y-46536337D01*
X160028593Y-46298241D01*
X160076212Y-46203003D01*
X160123831Y-46155384D01*
X160219069Y-46107765D01*
X160457164Y-46107765D01*
X160552402Y-46155384D01*
X160600021Y-46203003D01*
X160647640Y-46298241D01*
X160647640Y-46536337D01*
X160600021Y-46631575D01*
X160552402Y-46679194D01*
X163249302Y-47063866D02*
X163296921Y-47111485D01*
X163344540Y-47254342D01*
X163344540Y-47349580D01*
X163296921Y-47492438D01*
X163201683Y-47587676D01*
X163106445Y-47635295D01*
X162915969Y-47682914D01*
X162773112Y-47682914D01*
X162582636Y-47635295D01*
X162487398Y-47587676D01*
X162392160Y-47492438D01*
X162344540Y-47349580D01*
X162344540Y-47254342D01*
X162392160Y-47111485D01*
X162439779Y-47063866D01*
X162344540Y-46206723D02*
X162344540Y-46397200D01*
X162392160Y-46492438D01*
X162439779Y-46540057D01*
X162582636Y-46635295D01*
X162773112Y-46682914D01*
X163154064Y-46682914D01*
X163249302Y-46635295D01*
X163296921Y-46587676D01*
X163344540Y-46492438D01*
X163344540Y-46301961D01*
X163296921Y-46206723D01*
X163249302Y-46159104D01*
X163154064Y-46111485D01*
X162915969Y-46111485D01*
X162820731Y-46159104D01*
X162773112Y-46206723D01*
X162725493Y-46301961D01*
X162725493Y-46492438D01*
X162773112Y-46587676D01*
X162820731Y-46635295D01*
X162915969Y-46682914D01*
X165944742Y-47063866D02*
X165992361Y-47111485D01*
X166039980Y-47254342D01*
X166039980Y-47349580D01*
X165992361Y-47492438D01*
X165897123Y-47587676D01*
X165801885Y-47635295D01*
X165611409Y-47682914D01*
X165468552Y-47682914D01*
X165278076Y-47635295D01*
X165182838Y-47587676D01*
X165087600Y-47492438D01*
X165039980Y-47349580D01*
X165039980Y-47254342D01*
X165087600Y-47111485D01*
X165135219Y-47063866D01*
X165039980Y-46730533D02*
X165039980Y-46063866D01*
X166039980Y-46492438D01*
X168541122Y-47063866D02*
X168588741Y-47111485D01*
X168636360Y-47254342D01*
X168636360Y-47349580D01*
X168588741Y-47492438D01*
X168493503Y-47587676D01*
X168398265Y-47635295D01*
X168207789Y-47682914D01*
X168064932Y-47682914D01*
X167874456Y-47635295D01*
X167779218Y-47587676D01*
X167683980Y-47492438D01*
X167636360Y-47349580D01*
X167636360Y-47254342D01*
X167683980Y-47111485D01*
X167731599Y-47063866D01*
X168064932Y-46492438D02*
X168017313Y-46587676D01*
X167969694Y-46635295D01*
X167874456Y-46682914D01*
X167826837Y-46682914D01*
X167731599Y-46635295D01*
X167683980Y-46587676D01*
X167636360Y-46492438D01*
X167636360Y-46301961D01*
X167683980Y-46206723D01*
X167731599Y-46159104D01*
X167826837Y-46111485D01*
X167874456Y-46111485D01*
X167969694Y-46159104D01*
X168017313Y-46206723D01*
X168064932Y-46301961D01*
X168064932Y-46492438D01*
X168112551Y-46587676D01*
X168160170Y-46635295D01*
X168255408Y-46682914D01*
X168445884Y-46682914D01*
X168541122Y-46635295D01*
X168588741Y-46587676D01*
X168636360Y-46492438D01*
X168636360Y-46301961D01*
X168588741Y-46206723D01*
X168541122Y-46159104D01*
X168445884Y-46111485D01*
X168255408Y-46111485D01*
X168160170Y-46159104D01*
X168112551Y-46206723D01*
X168064932Y-46301961D01*
X123682166Y-54082700D02*
X123682166Y-54796986D01*
X123634547Y-54939843D01*
X123539309Y-55035081D01*
X123396452Y-55082700D01*
X123301214Y-55082700D01*
X124682166Y-55082700D02*
X124110738Y-55082700D01*
X124396452Y-55082700D02*
X124396452Y-54082700D01*
X124301214Y-54225558D01*
X124205976Y-54320796D01*
X124110738Y-54368415D01*
X155500746Y-46564300D02*
X155500746Y-47278586D01*
X155453127Y-47421443D01*
X155357889Y-47516681D01*
X155215032Y-47564300D01*
X155119794Y-47564300D01*
X155929318Y-46659539D02*
X155976937Y-46611920D01*
X156072175Y-46564300D01*
X156310270Y-46564300D01*
X156405508Y-46611920D01*
X156453127Y-46659539D01*
X156500746Y-46754777D01*
X156500746Y-46850015D01*
X156453127Y-46992872D01*
X155881699Y-47564300D01*
X156500746Y-47564300D01*
X152863010Y-49138939D02*
X152910629Y-49091320D01*
X153005867Y-49043700D01*
X153243962Y-49043700D01*
X153339200Y-49091320D01*
X153386820Y-49138939D01*
X153434439Y-49234177D01*
X153434439Y-49329415D01*
X153386820Y-49472272D01*
X152815391Y-50043700D01*
X153434439Y-50043700D01*
X153863010Y-49662748D02*
X154624915Y-49662748D01*
X155053486Y-49757986D02*
X155529677Y-49757986D01*
X154958248Y-50043700D02*
X155291581Y-49043700D01*
X155624915Y-50043700D01*
X155863010Y-49043700D02*
X156529677Y-50043700D01*
X156529677Y-49043700D02*
X155863010Y-50043700D01*
X156910629Y-50043700D02*
X156910629Y-49043700D01*
X157339200Y-49996081D02*
X157482058Y-50043700D01*
X157720153Y-50043700D01*
X157815391Y-49996081D01*
X157863010Y-49948462D01*
X157910629Y-49853224D01*
X157910629Y-49757986D01*
X157863010Y-49662748D01*
X157815391Y-49615129D01*
X157720153Y-49567510D01*
X157529677Y-49519891D01*
X157434439Y-49472272D01*
X157386820Y-49424653D01*
X157339200Y-49329415D01*
X157339200Y-49234177D01*
X157386820Y-49138939D01*
X157434439Y-49091320D01*
X157529677Y-49043700D01*
X157767772Y-49043700D01*
X157910629Y-49091320D01*
X152228058Y-50821700D02*
X152228058Y-51535986D01*
X152180439Y-51678843D01*
X152085200Y-51774081D01*
X151942343Y-51821700D01*
X151847105Y-51821700D01*
X152894724Y-50821700D02*
X153085200Y-50821700D01*
X153180439Y-50869320D01*
X153275677Y-50964558D01*
X153323296Y-51155034D01*
X153323296Y-51488367D01*
X153275677Y-51678843D01*
X153180439Y-51774081D01*
X153085200Y-51821700D01*
X152894724Y-51821700D01*
X152799486Y-51774081D01*
X152704248Y-51678843D01*
X152656629Y-51488367D01*
X152656629Y-51155034D01*
X152704248Y-50964558D01*
X152799486Y-50869320D01*
X152894724Y-50821700D01*
X153942343Y-51345510D02*
X153942343Y-51821700D01*
X153609010Y-50821700D02*
X153942343Y-51345510D01*
X154275677Y-50821700D01*
X154561391Y-51774081D02*
X154704248Y-51821700D01*
X154942343Y-51821700D01*
X155037581Y-51774081D01*
X155085200Y-51726462D01*
X155132820Y-51631224D01*
X155132820Y-51535986D01*
X155085200Y-51440748D01*
X155037581Y-51393129D01*
X154942343Y-51345510D01*
X154751867Y-51297891D01*
X154656629Y-51250272D01*
X154609010Y-51202653D01*
X154561391Y-51107415D01*
X154561391Y-51012177D01*
X154609010Y-50916939D01*
X154656629Y-50869320D01*
X154751867Y-50821700D01*
X154989962Y-50821700D01*
X155132820Y-50869320D01*
X155418534Y-50821700D02*
X155989962Y-50821700D01*
X155704248Y-51821700D02*
X155704248Y-50821700D01*
X156323296Y-51821700D02*
X156323296Y-50821700D01*
X157370915Y-51726462D02*
X157323296Y-51774081D01*
X157180439Y-51821700D01*
X157085200Y-51821700D01*
X156942343Y-51774081D01*
X156847105Y-51678843D01*
X156799486Y-51583605D01*
X156751867Y-51393129D01*
X156751867Y-51250272D01*
X156799486Y-51059796D01*
X156847105Y-50964558D01*
X156942343Y-50869320D01*
X157085200Y-50821700D01*
X157180439Y-50821700D01*
X157323296Y-50869320D01*
X157370915Y-50916939D01*
X157799486Y-51821700D02*
X157799486Y-50821700D01*
X158370915Y-51821700D02*
X157942343Y-51250272D01*
X158370915Y-50821700D02*
X157799486Y-51393129D01*
X145991526Y-53815600D02*
X145515336Y-53815600D01*
X145515336Y-52815600D01*
X147039145Y-52767981D02*
X146182002Y-54053696D01*
X147943907Y-53815600D02*
X147610574Y-53339410D01*
X147372479Y-53815600D02*
X147372479Y-52815600D01*
X147753431Y-52815600D01*
X147848669Y-52863220D01*
X147896288Y-52910839D01*
X147943907Y-53006077D01*
X147943907Y-53148934D01*
X147896288Y-53244172D01*
X147848669Y-53291791D01*
X147753431Y-53339410D01*
X147372479Y-53339410D01*
X148372479Y-53434648D02*
X149134383Y-53434648D01*
X148753431Y-53815600D02*
X148753431Y-53053696D01*
X146033994Y-56055880D02*
X145557803Y-56055880D01*
X145557803Y-55055880D01*
X147081613Y-55008261D02*
X146224470Y-56293976D01*
X147986375Y-56055880D02*
X147653041Y-55579690D01*
X147414946Y-56055880D02*
X147414946Y-55055880D01*
X147795899Y-55055880D01*
X147891137Y-55103500D01*
X147938756Y-55151119D01*
X147986375Y-55246357D01*
X147986375Y-55389214D01*
X147938756Y-55484452D01*
X147891137Y-55532071D01*
X147795899Y-55579690D01*
X147414946Y-55579690D01*
X161804688Y-52863860D02*
X161804688Y-53673384D01*
X161852307Y-53768622D01*
X161899926Y-53816241D01*
X161995164Y-53863860D01*
X162185640Y-53863860D01*
X162280879Y-53816241D01*
X162328498Y-53768622D01*
X162376117Y-53673384D01*
X162376117Y-52863860D01*
X163566593Y-52816241D02*
X162709450Y-54101956D01*
X163899926Y-53863860D02*
X163899926Y-52863860D01*
X164138021Y-52863860D01*
X164280879Y-52911480D01*
X164376117Y-53006718D01*
X164423736Y-53101956D01*
X164471355Y-53292432D01*
X164471355Y-53435289D01*
X164423736Y-53625765D01*
X164376117Y-53721003D01*
X164280879Y-53816241D01*
X164138021Y-53863860D01*
X163899926Y-53863860D01*
X164899926Y-53482908D02*
X165661831Y-53482908D01*
X165280879Y-53863860D02*
X165280879Y-53101956D01*
X163372034Y-55994920D02*
X162895843Y-55994920D01*
X162895843Y-54994920D01*
X164419653Y-54947301D02*
X163562510Y-56233016D01*
X165324415Y-55994920D02*
X164991081Y-55518730D01*
X164752986Y-55994920D02*
X164752986Y-54994920D01*
X165133939Y-54994920D01*
X165229177Y-55042540D01*
X165276796Y-55090159D01*
X165324415Y-55185397D01*
X165324415Y-55328254D01*
X165276796Y-55423492D01*
X165229177Y-55471111D01*
X165133939Y-55518730D01*
X164752986Y-55518730D01*
X162776796Y-75332700D02*
X162776796Y-76142224D01*
X162824415Y-76237462D01*
X162872034Y-76285081D01*
X162967272Y-76332700D01*
X163157748Y-76332700D01*
X163252986Y-76285081D01*
X163300605Y-76237462D01*
X163348224Y-76142224D01*
X163348224Y-75332700D01*
X164538700Y-75285081D02*
X163681558Y-76570796D01*
X164872034Y-76332700D02*
X164872034Y-75332700D01*
X165110129Y-75332700D01*
X165252986Y-75380320D01*
X165348224Y-75475558D01*
X165395843Y-75570796D01*
X165443462Y-75761272D01*
X165443462Y-75904129D01*
X165395843Y-76094605D01*
X165348224Y-76189843D01*
X165252986Y-76285081D01*
X165110129Y-76332700D01*
X164872034Y-76332700D01*
X163413315Y-77691720D02*
X163318077Y-77644100D01*
X163175220Y-77644100D01*
X163032362Y-77691720D01*
X162937124Y-77786958D01*
X162889505Y-77882196D01*
X162841886Y-78072672D01*
X162841886Y-78215529D01*
X162889505Y-78406005D01*
X162937124Y-78501243D01*
X163032362Y-78596481D01*
X163175220Y-78644100D01*
X163270458Y-78644100D01*
X163413315Y-78596481D01*
X163460934Y-78548862D01*
X163460934Y-78215529D01*
X163270458Y-78215529D01*
X163889505Y-78644100D02*
X163889505Y-77644100D01*
X164460934Y-78644100D01*
X164460934Y-77644100D01*
X164937124Y-78644100D02*
X164937124Y-77644100D01*
X165175220Y-77644100D01*
X165318077Y-77691720D01*
X165413315Y-77786958D01*
X165460934Y-77882196D01*
X165508553Y-78072672D01*
X165508553Y-78215529D01*
X165460934Y-78406005D01*
X165413315Y-78501243D01*
X165318077Y-78596481D01*
X165175220Y-78644100D01*
X164937124Y-78644100D01*
X145459076Y-75332700D02*
X145459076Y-76142224D01*
X145506695Y-76237462D01*
X145554314Y-76285081D01*
X145649552Y-76332700D01*
X145840028Y-76332700D01*
X145935266Y-76285081D01*
X145982885Y-76237462D01*
X146030504Y-76142224D01*
X146030504Y-75332700D01*
X147220980Y-75285081D02*
X146363838Y-76570796D01*
X147554314Y-76332700D02*
X147554314Y-75332700D01*
X147792409Y-75332700D01*
X147935266Y-75380320D01*
X148030504Y-75475558D01*
X148078123Y-75570796D01*
X148125742Y-75761272D01*
X148125742Y-75904129D01*
X148078123Y-76094605D01*
X148030504Y-76189843D01*
X147935266Y-76285081D01*
X147792409Y-76332700D01*
X147554314Y-76332700D01*
X145828895Y-77780620D02*
X145733657Y-77733000D01*
X145590800Y-77733000D01*
X145447942Y-77780620D01*
X145352704Y-77875858D01*
X145305085Y-77971096D01*
X145257466Y-78161572D01*
X145257466Y-78304429D01*
X145305085Y-78494905D01*
X145352704Y-78590143D01*
X145447942Y-78685381D01*
X145590800Y-78733000D01*
X145686038Y-78733000D01*
X145828895Y-78685381D01*
X145876514Y-78637762D01*
X145876514Y-78304429D01*
X145686038Y-78304429D01*
X146305085Y-78733000D02*
X146305085Y-77733000D01*
X146876514Y-78733000D01*
X146876514Y-77733000D01*
X147352704Y-78733000D02*
X147352704Y-77733000D01*
X147590800Y-77733000D01*
X147733657Y-77780620D01*
X147828895Y-77875858D01*
X147876514Y-77971096D01*
X147924133Y-78161572D01*
X147924133Y-78304429D01*
X147876514Y-78494905D01*
X147828895Y-78590143D01*
X147733657Y-78685381D01*
X147590800Y-78733000D01*
X147352704Y-78733000D01*
X133833333Y-71702380D02*
X133500000Y-71226190D01*
X133261904Y-71702380D02*
X133261904Y-70702380D01*
X133642857Y-70702380D01*
X133738095Y-70750000D01*
X133785714Y-70797619D01*
X133833333Y-70892857D01*
X133833333Y-71035714D01*
X133785714Y-71130952D01*
X133738095Y-71178571D01*
X133642857Y-71226190D01*
X133261904Y-71226190D01*
X134785714Y-71702380D02*
X134214285Y-71702380D01*
X134500000Y-71702380D02*
X134500000Y-70702380D01*
X134404761Y-70845238D01*
X134309523Y-70940476D01*
X134214285Y-70988095D01*
X133753333Y-83452380D02*
X133420000Y-82976190D01*
X133181904Y-83452380D02*
X133181904Y-82452380D01*
X133562857Y-82452380D01*
X133658095Y-82500000D01*
X133705714Y-82547619D01*
X133753333Y-82642857D01*
X133753333Y-82785714D01*
X133705714Y-82880952D01*
X133658095Y-82928571D01*
X133562857Y-82976190D01*
X133181904Y-82976190D01*
X134134285Y-82547619D02*
X134181904Y-82500000D01*
X134277142Y-82452380D01*
X134515238Y-82452380D01*
X134610476Y-82500000D01*
X134658095Y-82547619D01*
X134705714Y-82642857D01*
X134705714Y-82738095D01*
X134658095Y-82880952D01*
X134086666Y-83452380D01*
X134705714Y-83452380D01*
X133833333Y-67452380D02*
X133500000Y-66976190D01*
X133261904Y-67452380D02*
X133261904Y-66452380D01*
X133642857Y-66452380D01*
X133738095Y-66500000D01*
X133785714Y-66547619D01*
X133833333Y-66642857D01*
X133833333Y-66785714D01*
X133785714Y-66880952D01*
X133738095Y-66928571D01*
X133642857Y-66976190D01*
X133261904Y-66976190D01*
X134166666Y-66452380D02*
X134785714Y-66452380D01*
X134452380Y-66833333D01*
X134595238Y-66833333D01*
X134690476Y-66880952D01*
X134738095Y-66928571D01*
X134785714Y-67023809D01*
X134785714Y-67261904D01*
X134738095Y-67357142D01*
X134690476Y-67404761D01*
X134595238Y-67452380D01*
X134309523Y-67452380D01*
X134214285Y-67404761D01*
X134166666Y-67357142D01*
X133833333Y-55702380D02*
X133500000Y-55226190D01*
X133261904Y-55702380D02*
X133261904Y-54702380D01*
X133642857Y-54702380D01*
X133738095Y-54750000D01*
X133785714Y-54797619D01*
X133833333Y-54892857D01*
X133833333Y-55035714D01*
X133785714Y-55130952D01*
X133738095Y-55178571D01*
X133642857Y-55226190D01*
X133261904Y-55226190D01*
X134690476Y-55035714D02*
X134690476Y-55702380D01*
X134452380Y-54654761D02*
X134214285Y-55369047D01*
X134833333Y-55369047D01*
X88913333Y-73582380D02*
X88580000Y-73106190D01*
X88341904Y-73582380D02*
X88341904Y-72582380D01*
X88722857Y-72582380D01*
X88818095Y-72630000D01*
X88865714Y-72677619D01*
X88913333Y-72772857D01*
X88913333Y-72915714D01*
X88865714Y-73010952D01*
X88818095Y-73058571D01*
X88722857Y-73106190D01*
X88341904Y-73106190D01*
X89818095Y-72582380D02*
X89341904Y-72582380D01*
X89294285Y-73058571D01*
X89341904Y-73010952D01*
X89437142Y-72963333D01*
X89675238Y-72963333D01*
X89770476Y-73010952D01*
X89818095Y-73058571D01*
X89865714Y-73153809D01*
X89865714Y-73391904D01*
X89818095Y-73487142D01*
X89770476Y-73534761D01*
X89675238Y-73582380D01*
X89437142Y-73582380D01*
X89341904Y-73534761D01*
X89294285Y-73487142D01*
X110003293Y-73578800D02*
X109669960Y-73102610D01*
X109431864Y-73578800D02*
X109431864Y-72578800D01*
X109812817Y-72578800D01*
X109908055Y-72626420D01*
X109955674Y-72674039D01*
X110003293Y-72769277D01*
X110003293Y-72912134D01*
X109955674Y-73007372D01*
X109908055Y-73054991D01*
X109812817Y-73102610D01*
X109431864Y-73102610D01*
X110860436Y-72578800D02*
X110669960Y-72578800D01*
X110574721Y-72626420D01*
X110527102Y-72674039D01*
X110431864Y-72816896D01*
X110384245Y-73007372D01*
X110384245Y-73388324D01*
X110431864Y-73483562D01*
X110479483Y-73531181D01*
X110574721Y-73578800D01*
X110765198Y-73578800D01*
X110860436Y-73531181D01*
X110908055Y-73483562D01*
X110955674Y-73388324D01*
X110955674Y-73150229D01*
X110908055Y-73054991D01*
X110860436Y-73007372D01*
X110765198Y-72959753D01*
X110574721Y-72959753D01*
X110479483Y-73007372D01*
X110431864Y-73054991D01*
X110384245Y-73150229D01*
X88027166Y-59108301D02*
X88170023Y-59155920D01*
X88408119Y-59155920D01*
X88503357Y-59108301D01*
X88550976Y-59060682D01*
X88598595Y-58965444D01*
X88598595Y-58870206D01*
X88550976Y-58774968D01*
X88503357Y-58727349D01*
X88408119Y-58679730D01*
X88217642Y-58632111D01*
X88122404Y-58584492D01*
X88074785Y-58536873D01*
X88027166Y-58441635D01*
X88027166Y-58346397D01*
X88074785Y-58251159D01*
X88122404Y-58203540D01*
X88217642Y-58155920D01*
X88455738Y-58155920D01*
X88598595Y-58203540D01*
X88931928Y-58155920D02*
X89170023Y-59155920D01*
X89360500Y-58441635D01*
X89550976Y-59155920D01*
X89789071Y-58155920D01*
X90693833Y-59155920D02*
X90122404Y-59155920D01*
X90408119Y-59155920D02*
X90408119Y-58155920D01*
X90312880Y-58298778D01*
X90217642Y-58394016D01*
X90122404Y-58441635D01*
X109120826Y-59108301D02*
X109263683Y-59155920D01*
X109501779Y-59155920D01*
X109597017Y-59108301D01*
X109644636Y-59060682D01*
X109692255Y-58965444D01*
X109692255Y-58870206D01*
X109644636Y-58774968D01*
X109597017Y-58727349D01*
X109501779Y-58679730D01*
X109311302Y-58632111D01*
X109216064Y-58584492D01*
X109168445Y-58536873D01*
X109120826Y-58441635D01*
X109120826Y-58346397D01*
X109168445Y-58251159D01*
X109216064Y-58203540D01*
X109311302Y-58155920D01*
X109549398Y-58155920D01*
X109692255Y-58203540D01*
X110025588Y-58155920D02*
X110263683Y-59155920D01*
X110454160Y-58441635D01*
X110644636Y-59155920D01*
X110882731Y-58155920D01*
X111216064Y-58251159D02*
X111263683Y-58203540D01*
X111358921Y-58155920D01*
X111597017Y-58155920D01*
X111692255Y-58203540D01*
X111739874Y-58251159D01*
X111787493Y-58346397D01*
X111787493Y-58441635D01*
X111739874Y-58584492D01*
X111168445Y-59155920D01*
X111787493Y-59155920D01*
%LPC*%
D12*
X142717520Y-44924980D03*
X142717520Y-42424980D03*
X145356580Y-44924980D03*
X145356580Y-42424980D03*
X147995640Y-42424980D03*
X147995640Y-44924980D03*
X150634700Y-42424980D03*
X150634700Y-44924980D03*
X160229360Y-44941580D03*
X160229360Y-42441580D03*
X162867340Y-42445300D03*
X162867340Y-44945300D03*
X165506400Y-44945300D03*
X165506400Y-42445300D03*
X168145460Y-42445300D03*
X168145460Y-44945300D03*
D13*
X118500000Y-52000000D03*
X121270000Y-52000000D03*
X124040000Y-52000000D03*
X126810000Y-52000000D03*
X129580000Y-52000000D03*
X119885000Y-49160000D03*
X122655000Y-49160000D03*
X125425000Y-49160000D03*
X128195000Y-49160000D03*
D14*
X111545000Y-50580000D03*
X136535000Y-50580000D03*
X147810000Y-50457460D03*
D15*
X144000000Y-55537460D03*
X144000000Y-78397460D03*
X144000000Y-75857460D03*
X166860000Y-78397460D03*
X166860000Y-75857460D03*
X166860000Y-55537460D03*
X166860000Y-52997460D03*
X143994920Y-52987300D03*
D14*
X163050000Y-50457460D03*
X163050000Y-80937460D03*
X147810000Y-80937460D03*
D16*
X128994920Y-76992380D03*
X138994920Y-74492380D03*
X138994920Y-79492380D03*
D12*
X139000000Y-85000000D03*
D17*
X128840000Y-85000000D03*
X128795780Y-69000000D03*
D12*
X138955780Y-69000000D03*
D16*
X138994920Y-63492380D03*
X138994920Y-58492380D03*
X128994920Y-60992380D03*
D12*
X84000000Y-75500000D03*
D17*
X94160000Y-75500000D03*
X115249960Y-75496420D03*
D12*
X105089960Y-75496420D03*
D18*
X92906340Y-62130000D03*
X85286340Y-67210000D03*
D19*
X87826340Y-64670000D03*
X92906340Y-69750000D03*
X114000000Y-69750000D03*
X108920000Y-64670000D03*
D18*
X106380000Y-67210000D03*
X114000000Y-62130000D03*
M02*
