G04 #@! TF.GenerationSoftware,KiCad,Pcbnew,(5.1.2)-1*
G04 #@! TF.CreationDate,2019-11-15T07:12:07-08:00*
G04 #@! TF.ProjectId,AppleIIJoystick,4170706c-6549-4494-9a6f-79737469636b,rev?*
G04 #@! TF.SameCoordinates,Original*
G04 #@! TF.FileFunction,Copper,L2,Bot*
G04 #@! TF.FilePolarity,Positive*
%FSLAX46Y46*%
G04 Gerber Fmt 4.6, Leading zero omitted, Abs format (unit mm)*
G04 Created by KiCad (PCBNEW (5.1.2)-1) date 2019-11-15 07:12:07*
%MOMM*%
%LPD*%
G04 APERTURE LIST*
%ADD10C,1.600000*%
%ADD11C,1.900000*%
%ADD12C,4.000000*%
%ADD13C,1.524000*%
%ADD14C,2.300000*%
%ADD15O,1.600000X1.600000*%
%ADD16C,2.000000*%
%ADD17C,0.254000*%
G04 APERTURE END LIST*
D10*
X142717520Y-44924980D03*
X142717520Y-42424980D03*
X145356580Y-44924980D03*
X145356580Y-42424980D03*
X147995640Y-42424980D03*
X147995640Y-44924980D03*
X150634700Y-42424980D03*
X150634700Y-44924980D03*
X160229360Y-44941580D03*
X160229360Y-42441580D03*
X162867340Y-42445300D03*
X162867340Y-44945300D03*
X165506400Y-44945300D03*
X165506400Y-42445300D03*
X168145460Y-42445300D03*
X168145460Y-44945300D03*
D11*
X118500000Y-52000000D03*
X121270000Y-52000000D03*
X124040000Y-52000000D03*
X126810000Y-52000000D03*
X129580000Y-52000000D03*
X119885000Y-49160000D03*
X122655000Y-49160000D03*
X125425000Y-49160000D03*
X128195000Y-49160000D03*
D12*
X111545000Y-50580000D03*
X136535000Y-50580000D03*
X147810000Y-50457460D03*
D13*
X144000000Y-55537460D03*
X144000000Y-78397460D03*
X144000000Y-75857460D03*
X166860000Y-78397460D03*
X166860000Y-75857460D03*
X166860000Y-55537460D03*
X166860000Y-52997460D03*
X143994920Y-52987300D03*
D12*
X163050000Y-50457460D03*
X163050000Y-80937460D03*
X147810000Y-80937460D03*
D14*
X128994920Y-76992380D03*
X138994920Y-74492380D03*
X138994920Y-79492380D03*
D10*
X139000000Y-85000000D03*
D15*
X128840000Y-85000000D03*
X128795780Y-69000000D03*
D10*
X138955780Y-69000000D03*
D14*
X138994920Y-63492380D03*
X138994920Y-58492380D03*
X128994920Y-60992380D03*
D10*
X84000000Y-75500000D03*
D15*
X94160000Y-75500000D03*
X115249960Y-75496420D03*
D10*
X105089960Y-75496420D03*
D16*
X87826340Y-64670000D03*
X92906340Y-69750000D03*
X114000000Y-69750000D03*
X108920000Y-64670000D03*
D17*
G36*
X141480849Y-41683466D02*
G01*
X141359949Y-41938976D01*
X141291220Y-42213164D01*
X141277303Y-42495492D01*
X141318733Y-42775110D01*
X141413917Y-43041272D01*
X141480849Y-43166494D01*
X141724818Y-43238077D01*
X142537915Y-42424980D01*
X142523773Y-42410838D01*
X142703378Y-42231233D01*
X142717520Y-42245375D01*
X142731663Y-42231233D01*
X142911268Y-42410838D01*
X142897125Y-42424980D01*
X143710222Y-43238077D01*
X143954191Y-43166494D01*
X144035959Y-42993685D01*
X144052977Y-43041272D01*
X144119909Y-43166494D01*
X144363878Y-43238077D01*
X145176975Y-42424980D01*
X145162833Y-42410838D01*
X145342438Y-42231233D01*
X145356580Y-42245375D01*
X145370723Y-42231233D01*
X145550328Y-42410838D01*
X145536185Y-42424980D01*
X146349282Y-43238077D01*
X146593251Y-43166494D01*
X146675019Y-42993685D01*
X146692037Y-43041272D01*
X146758969Y-43166494D01*
X147002938Y-43238077D01*
X147816035Y-42424980D01*
X147801893Y-42410838D01*
X147981498Y-42231233D01*
X147995640Y-42245375D01*
X148009783Y-42231233D01*
X148189388Y-42410838D01*
X148175245Y-42424980D01*
X148988342Y-43238077D01*
X149232311Y-43166494D01*
X149314079Y-42993685D01*
X149331097Y-43041272D01*
X149398029Y-43166494D01*
X149641998Y-43238077D01*
X150455095Y-42424980D01*
X150440953Y-42410838D01*
X150620558Y-42231233D01*
X150634700Y-42245375D01*
X150648843Y-42231233D01*
X150828448Y-42410838D01*
X150814305Y-42424980D01*
X151627402Y-43238077D01*
X151871371Y-43166494D01*
X151992271Y-42910984D01*
X152061000Y-42636796D01*
X152074917Y-42354468D01*
X152033487Y-42074850D01*
X151938303Y-41808688D01*
X151871371Y-41683466D01*
X151791394Y-41660000D01*
X159129242Y-41660000D01*
X158992689Y-41700066D01*
X158871789Y-41955576D01*
X158803060Y-42229764D01*
X158789143Y-42512092D01*
X158830573Y-42791710D01*
X158925757Y-43057872D01*
X158992689Y-43183094D01*
X159236658Y-43254677D01*
X160049755Y-42441580D01*
X160035613Y-42427438D01*
X160215218Y-42247833D01*
X160229360Y-42261975D01*
X160243503Y-42247833D01*
X160423108Y-42427438D01*
X160408965Y-42441580D01*
X161222062Y-43254677D01*
X161466031Y-43183094D01*
X161546426Y-43013186D01*
X161563737Y-43061592D01*
X161630669Y-43186814D01*
X161874638Y-43258397D01*
X162687735Y-42445300D01*
X162673593Y-42431158D01*
X162853198Y-42251553D01*
X162867340Y-42265695D01*
X162881483Y-42251553D01*
X163061088Y-42431158D01*
X163046945Y-42445300D01*
X163860042Y-43258397D01*
X164104011Y-43186814D01*
X164185779Y-43014005D01*
X164202797Y-43061592D01*
X164269729Y-43186814D01*
X164513698Y-43258397D01*
X165326795Y-42445300D01*
X165312653Y-42431158D01*
X165492258Y-42251553D01*
X165506400Y-42265695D01*
X165520543Y-42251553D01*
X165700148Y-42431158D01*
X165686005Y-42445300D01*
X166499102Y-43258397D01*
X166743071Y-43186814D01*
X166824839Y-43014005D01*
X166841857Y-43061592D01*
X166908789Y-43186814D01*
X167152758Y-43258397D01*
X167965855Y-42445300D01*
X167951713Y-42431158D01*
X168131318Y-42251553D01*
X168145460Y-42265695D01*
X168159603Y-42251553D01*
X168339208Y-42431158D01*
X168325065Y-42445300D01*
X169138162Y-43258397D01*
X169382131Y-43186814D01*
X169503031Y-42931304D01*
X169571760Y-42657116D01*
X169585677Y-42374788D01*
X169544247Y-42095170D01*
X169449063Y-41829008D01*
X169382131Y-41703786D01*
X169365995Y-41699051D01*
X169453893Y-41707670D01*
X169890498Y-41839489D01*
X170293185Y-42053600D01*
X170646612Y-42341848D01*
X170937327Y-42693261D01*
X171154242Y-43094439D01*
X171289106Y-43530113D01*
X171340000Y-44014344D01*
X171340001Y-85967711D01*
X171292330Y-86453894D01*
X171160512Y-86890497D01*
X170946399Y-87293186D01*
X170658150Y-87646613D01*
X170306739Y-87937327D01*
X169905564Y-88154240D01*
X169469886Y-88289106D01*
X168985664Y-88340000D01*
X79032279Y-88340000D01*
X78546106Y-88292330D01*
X78109503Y-88160512D01*
X77706814Y-87946399D01*
X77353387Y-87658150D01*
X77062673Y-87306739D01*
X76845760Y-86905564D01*
X76710894Y-86469886D01*
X76660000Y-85985664D01*
X76660000Y-85000000D01*
X127398057Y-85000000D01*
X127425764Y-85281309D01*
X127507818Y-85551808D01*
X127641068Y-85801101D01*
X127820392Y-86019608D01*
X128038899Y-86198932D01*
X128288192Y-86332182D01*
X128558691Y-86414236D01*
X128769508Y-86435000D01*
X128910492Y-86435000D01*
X129121309Y-86414236D01*
X129391808Y-86332182D01*
X129641101Y-86198932D01*
X129859608Y-86019608D01*
X130038932Y-85801101D01*
X130172182Y-85551808D01*
X130254236Y-85281309D01*
X130281943Y-85000000D01*
X130268023Y-84858665D01*
X137565000Y-84858665D01*
X137565000Y-85141335D01*
X137620147Y-85418574D01*
X137728320Y-85679727D01*
X137885363Y-85914759D01*
X138085241Y-86114637D01*
X138320273Y-86271680D01*
X138581426Y-86379853D01*
X138858665Y-86435000D01*
X139141335Y-86435000D01*
X139418574Y-86379853D01*
X139679727Y-86271680D01*
X139914759Y-86114637D01*
X140114637Y-85914759D01*
X140271680Y-85679727D01*
X140379853Y-85418574D01*
X140435000Y-85141335D01*
X140435000Y-84858665D01*
X140379853Y-84581426D01*
X140271680Y-84320273D01*
X140114637Y-84085241D01*
X139914759Y-83885363D01*
X139679727Y-83728320D01*
X139418574Y-83620147D01*
X139141335Y-83565000D01*
X138858665Y-83565000D01*
X138581426Y-83620147D01*
X138320273Y-83728320D01*
X138085241Y-83885363D01*
X137885363Y-84085241D01*
X137728320Y-84320273D01*
X137620147Y-84581426D01*
X137565000Y-84858665D01*
X130268023Y-84858665D01*
X130254236Y-84718691D01*
X130172182Y-84448192D01*
X130038932Y-84198899D01*
X129859608Y-83980392D01*
X129641101Y-83801068D01*
X129391808Y-83667818D01*
X129121309Y-83585764D01*
X128910492Y-83565000D01*
X128769508Y-83565000D01*
X128558691Y-83585764D01*
X128288192Y-83667818D01*
X128038899Y-83801068D01*
X127820392Y-83980392D01*
X127641068Y-84198899D01*
X127507818Y-84448192D01*
X127425764Y-84718691D01*
X127398057Y-85000000D01*
X76660000Y-85000000D01*
X76660000Y-79316573D01*
X137209920Y-79316573D01*
X137209920Y-79668187D01*
X137278516Y-80013045D01*
X137413073Y-80337895D01*
X137608420Y-80630251D01*
X137857049Y-80878880D01*
X138149405Y-81074227D01*
X138474255Y-81208784D01*
X138819113Y-81277380D01*
X139170727Y-81277380D01*
X139515585Y-81208784D01*
X139840435Y-81074227D01*
X140132791Y-80878880D01*
X140333736Y-80677935D01*
X145175000Y-80677935D01*
X145175000Y-81196985D01*
X145276261Y-81706061D01*
X145474893Y-82185601D01*
X145763262Y-82617175D01*
X146130285Y-82984198D01*
X146561859Y-83272567D01*
X147041399Y-83471199D01*
X147550475Y-83572460D01*
X148069525Y-83572460D01*
X148578601Y-83471199D01*
X149058141Y-83272567D01*
X149489715Y-82984198D01*
X149856738Y-82617175D01*
X150145107Y-82185601D01*
X150343739Y-81706061D01*
X150445000Y-81196985D01*
X150445000Y-80677935D01*
X160415000Y-80677935D01*
X160415000Y-81196985D01*
X160516261Y-81706061D01*
X160714893Y-82185601D01*
X161003262Y-82617175D01*
X161370285Y-82984198D01*
X161801859Y-83272567D01*
X162281399Y-83471199D01*
X162790475Y-83572460D01*
X163309525Y-83572460D01*
X163818601Y-83471199D01*
X164298141Y-83272567D01*
X164729715Y-82984198D01*
X165096738Y-82617175D01*
X165385107Y-82185601D01*
X165583739Y-81706061D01*
X165685000Y-81196985D01*
X165685000Y-80677935D01*
X165583739Y-80168859D01*
X165385107Y-79689319D01*
X165096738Y-79257745D01*
X164729715Y-78890722D01*
X164298141Y-78602353D01*
X163818601Y-78403721D01*
X163309525Y-78302460D01*
X162790475Y-78302460D01*
X162281399Y-78403721D01*
X161801859Y-78602353D01*
X161370285Y-78890722D01*
X161003262Y-79257745D01*
X160714893Y-79689319D01*
X160516261Y-80168859D01*
X160415000Y-80677935D01*
X150445000Y-80677935D01*
X150343739Y-80168859D01*
X150145107Y-79689319D01*
X149856738Y-79257745D01*
X149489715Y-78890722D01*
X149058141Y-78602353D01*
X148578601Y-78403721D01*
X148069525Y-78302460D01*
X147550475Y-78302460D01*
X147041399Y-78403721D01*
X146561859Y-78602353D01*
X146130285Y-78890722D01*
X145763262Y-79257745D01*
X145474893Y-79689319D01*
X145276261Y-80168859D01*
X145175000Y-80677935D01*
X140333736Y-80677935D01*
X140381420Y-80630251D01*
X140576767Y-80337895D01*
X140711324Y-80013045D01*
X140779920Y-79668187D01*
X140779920Y-79316573D01*
X140711324Y-78971715D01*
X140576767Y-78646865D01*
X140381420Y-78354509D01*
X140132791Y-78105880D01*
X139840435Y-77910533D01*
X139515585Y-77775976D01*
X139170727Y-77707380D01*
X138819113Y-77707380D01*
X138474255Y-77775976D01*
X138149405Y-77910533D01*
X137857049Y-78105880D01*
X137608420Y-78354509D01*
X137413073Y-78646865D01*
X137278516Y-78971715D01*
X137209920Y-79316573D01*
X76660000Y-79316573D01*
X76660000Y-75358665D01*
X82565000Y-75358665D01*
X82565000Y-75641335D01*
X82620147Y-75918574D01*
X82728320Y-76179727D01*
X82885363Y-76414759D01*
X83085241Y-76614637D01*
X83320273Y-76771680D01*
X83581426Y-76879853D01*
X83858665Y-76935000D01*
X84141335Y-76935000D01*
X84418574Y-76879853D01*
X84679727Y-76771680D01*
X84914759Y-76614637D01*
X85114637Y-76414759D01*
X85271680Y-76179727D01*
X85379853Y-75918574D01*
X85393684Y-75849039D01*
X92768096Y-75849039D01*
X92808754Y-75983087D01*
X92928963Y-76237420D01*
X93096481Y-76463414D01*
X93304869Y-76652385D01*
X93546119Y-76797070D01*
X93810960Y-76891909D01*
X94033000Y-76770624D01*
X94033000Y-75627000D01*
X94287000Y-75627000D01*
X94287000Y-76770624D01*
X94509040Y-76891909D01*
X94773881Y-76797070D01*
X95015131Y-76652385D01*
X95223519Y-76463414D01*
X95391037Y-76237420D01*
X95511246Y-75983087D01*
X95551904Y-75849039D01*
X95429915Y-75627000D01*
X94287000Y-75627000D01*
X94033000Y-75627000D01*
X92890085Y-75627000D01*
X92768096Y-75849039D01*
X85393684Y-75849039D01*
X85435000Y-75641335D01*
X85435000Y-75358665D01*
X85393685Y-75150961D01*
X92768096Y-75150961D01*
X92890085Y-75373000D01*
X94033000Y-75373000D01*
X94033000Y-74229376D01*
X94287000Y-74229376D01*
X94287000Y-75373000D01*
X95429915Y-75373000D01*
X95439757Y-75355085D01*
X103654960Y-75355085D01*
X103654960Y-75637755D01*
X103710107Y-75914994D01*
X103818280Y-76176147D01*
X103975323Y-76411179D01*
X104175201Y-76611057D01*
X104410233Y-76768100D01*
X104671386Y-76876273D01*
X104948625Y-76931420D01*
X105231295Y-76931420D01*
X105508534Y-76876273D01*
X105769687Y-76768100D01*
X106004719Y-76611057D01*
X106204597Y-76411179D01*
X106361640Y-76176147D01*
X106469813Y-75914994D01*
X106483644Y-75845459D01*
X113858056Y-75845459D01*
X113898714Y-75979507D01*
X114018923Y-76233840D01*
X114186441Y-76459834D01*
X114394829Y-76648805D01*
X114636079Y-76793490D01*
X114900920Y-76888329D01*
X115122960Y-76767044D01*
X115122960Y-75623420D01*
X115376960Y-75623420D01*
X115376960Y-76767044D01*
X115599000Y-76888329D01*
X115799380Y-76816573D01*
X127209920Y-76816573D01*
X127209920Y-77168187D01*
X127278516Y-77513045D01*
X127413073Y-77837895D01*
X127608420Y-78130251D01*
X127857049Y-78378880D01*
X128149405Y-78574227D01*
X128474255Y-78708784D01*
X128819113Y-78777380D01*
X129170727Y-78777380D01*
X129515585Y-78708784D01*
X129840435Y-78574227D01*
X130132791Y-78378880D01*
X130381420Y-78130251D01*
X130576767Y-77837895D01*
X130711324Y-77513045D01*
X130779920Y-77168187D01*
X130779920Y-76816573D01*
X130711324Y-76471715D01*
X130576767Y-76146865D01*
X130381420Y-75854509D01*
X130132791Y-75605880D01*
X129840435Y-75410533D01*
X129515585Y-75275976D01*
X129170727Y-75207380D01*
X128819113Y-75207380D01*
X128474255Y-75275976D01*
X128149405Y-75410533D01*
X127857049Y-75605880D01*
X127608420Y-75854509D01*
X127413073Y-76146865D01*
X127278516Y-76471715D01*
X127209920Y-76816573D01*
X115799380Y-76816573D01*
X115863841Y-76793490D01*
X116105091Y-76648805D01*
X116313479Y-76459834D01*
X116480997Y-76233840D01*
X116601206Y-75979507D01*
X116641864Y-75845459D01*
X116519875Y-75623420D01*
X115376960Y-75623420D01*
X115122960Y-75623420D01*
X113980045Y-75623420D01*
X113858056Y-75845459D01*
X106483644Y-75845459D01*
X106524960Y-75637755D01*
X106524960Y-75355085D01*
X106483645Y-75147381D01*
X113858056Y-75147381D01*
X113980045Y-75369420D01*
X115122960Y-75369420D01*
X115122960Y-74225796D01*
X115376960Y-74225796D01*
X115376960Y-75369420D01*
X116519875Y-75369420D01*
X116641864Y-75147381D01*
X116601206Y-75013333D01*
X116480997Y-74759000D01*
X116313479Y-74533006D01*
X116105091Y-74344035D01*
X116059301Y-74316573D01*
X137209920Y-74316573D01*
X137209920Y-74668187D01*
X137278516Y-75013045D01*
X137413073Y-75337895D01*
X137608420Y-75630251D01*
X137857049Y-75878880D01*
X138149405Y-76074227D01*
X138474255Y-76208784D01*
X138819113Y-76277380D01*
X139170727Y-76277380D01*
X139515585Y-76208784D01*
X139840435Y-76074227D01*
X140132791Y-75878880D01*
X140291803Y-75719868D01*
X142603000Y-75719868D01*
X142603000Y-75995052D01*
X142656686Y-76264950D01*
X142761995Y-76519187D01*
X142914880Y-76747995D01*
X143109465Y-76942580D01*
X143338273Y-77095465D01*
X143415515Y-77127460D01*
X143338273Y-77159455D01*
X143109465Y-77312340D01*
X142914880Y-77506925D01*
X142761995Y-77735733D01*
X142656686Y-77989970D01*
X142603000Y-78259868D01*
X142603000Y-78535052D01*
X142656686Y-78804950D01*
X142761995Y-79059187D01*
X142914880Y-79287995D01*
X143109465Y-79482580D01*
X143338273Y-79635465D01*
X143592510Y-79740774D01*
X143862408Y-79794460D01*
X144137592Y-79794460D01*
X144407490Y-79740774D01*
X144661727Y-79635465D01*
X144890535Y-79482580D01*
X145085120Y-79287995D01*
X145238005Y-79059187D01*
X145343314Y-78804950D01*
X145397000Y-78535052D01*
X145397000Y-78259868D01*
X145343314Y-77989970D01*
X145238005Y-77735733D01*
X145085120Y-77506925D01*
X144890535Y-77312340D01*
X144661727Y-77159455D01*
X144584485Y-77127460D01*
X144661727Y-77095465D01*
X144890535Y-76942580D01*
X145085120Y-76747995D01*
X145238005Y-76519187D01*
X145343314Y-76264950D01*
X145397000Y-75995052D01*
X145397000Y-75719868D01*
X165463000Y-75719868D01*
X165463000Y-75995052D01*
X165516686Y-76264950D01*
X165621995Y-76519187D01*
X165774880Y-76747995D01*
X165969465Y-76942580D01*
X166198273Y-77095465D01*
X166275515Y-77127460D01*
X166198273Y-77159455D01*
X165969465Y-77312340D01*
X165774880Y-77506925D01*
X165621995Y-77735733D01*
X165516686Y-77989970D01*
X165463000Y-78259868D01*
X165463000Y-78535052D01*
X165516686Y-78804950D01*
X165621995Y-79059187D01*
X165774880Y-79287995D01*
X165969465Y-79482580D01*
X166198273Y-79635465D01*
X166452510Y-79740774D01*
X166722408Y-79794460D01*
X166997592Y-79794460D01*
X167267490Y-79740774D01*
X167521727Y-79635465D01*
X167750535Y-79482580D01*
X167945120Y-79287995D01*
X168098005Y-79059187D01*
X168203314Y-78804950D01*
X168257000Y-78535052D01*
X168257000Y-78259868D01*
X168203314Y-77989970D01*
X168098005Y-77735733D01*
X167945120Y-77506925D01*
X167750535Y-77312340D01*
X167521727Y-77159455D01*
X167444485Y-77127460D01*
X167521727Y-77095465D01*
X167750535Y-76942580D01*
X167945120Y-76747995D01*
X168098005Y-76519187D01*
X168203314Y-76264950D01*
X168257000Y-75995052D01*
X168257000Y-75719868D01*
X168203314Y-75449970D01*
X168098005Y-75195733D01*
X167945120Y-74966925D01*
X167750535Y-74772340D01*
X167521727Y-74619455D01*
X167267490Y-74514146D01*
X166997592Y-74460460D01*
X166722408Y-74460460D01*
X166452510Y-74514146D01*
X166198273Y-74619455D01*
X165969465Y-74772340D01*
X165774880Y-74966925D01*
X165621995Y-75195733D01*
X165516686Y-75449970D01*
X165463000Y-75719868D01*
X145397000Y-75719868D01*
X145343314Y-75449970D01*
X145238005Y-75195733D01*
X145085120Y-74966925D01*
X144890535Y-74772340D01*
X144661727Y-74619455D01*
X144407490Y-74514146D01*
X144137592Y-74460460D01*
X143862408Y-74460460D01*
X143592510Y-74514146D01*
X143338273Y-74619455D01*
X143109465Y-74772340D01*
X142914880Y-74966925D01*
X142761995Y-75195733D01*
X142656686Y-75449970D01*
X142603000Y-75719868D01*
X140291803Y-75719868D01*
X140381420Y-75630251D01*
X140576767Y-75337895D01*
X140711324Y-75013045D01*
X140779920Y-74668187D01*
X140779920Y-74316573D01*
X140711324Y-73971715D01*
X140576767Y-73646865D01*
X140381420Y-73354509D01*
X140132791Y-73105880D01*
X139840435Y-72910533D01*
X139515585Y-72775976D01*
X139170727Y-72707380D01*
X138819113Y-72707380D01*
X138474255Y-72775976D01*
X138149405Y-72910533D01*
X137857049Y-73105880D01*
X137608420Y-73354509D01*
X137413073Y-73646865D01*
X137278516Y-73971715D01*
X137209920Y-74316573D01*
X116059301Y-74316573D01*
X115863841Y-74199350D01*
X115599000Y-74104511D01*
X115376960Y-74225796D01*
X115122960Y-74225796D01*
X114900920Y-74104511D01*
X114636079Y-74199350D01*
X114394829Y-74344035D01*
X114186441Y-74533006D01*
X114018923Y-74759000D01*
X113898714Y-75013333D01*
X113858056Y-75147381D01*
X106483645Y-75147381D01*
X106469813Y-75077846D01*
X106361640Y-74816693D01*
X106204597Y-74581661D01*
X106004719Y-74381783D01*
X105769687Y-74224740D01*
X105508534Y-74116567D01*
X105231295Y-74061420D01*
X104948625Y-74061420D01*
X104671386Y-74116567D01*
X104410233Y-74224740D01*
X104175201Y-74381783D01*
X103975323Y-74581661D01*
X103818280Y-74816693D01*
X103710107Y-75077846D01*
X103654960Y-75355085D01*
X95439757Y-75355085D01*
X95551904Y-75150961D01*
X95511246Y-75016913D01*
X95391037Y-74762580D01*
X95223519Y-74536586D01*
X95015131Y-74347615D01*
X94773881Y-74202930D01*
X94509040Y-74108091D01*
X94287000Y-74229376D01*
X94033000Y-74229376D01*
X93810960Y-74108091D01*
X93546119Y-74202930D01*
X93304869Y-74347615D01*
X93096481Y-74536586D01*
X92928963Y-74762580D01*
X92808754Y-75016913D01*
X92768096Y-75150961D01*
X85393685Y-75150961D01*
X85379853Y-75081426D01*
X85271680Y-74820273D01*
X85114637Y-74585241D01*
X84914759Y-74385363D01*
X84679727Y-74228320D01*
X84418574Y-74120147D01*
X84141335Y-74065000D01*
X83858665Y-74065000D01*
X83581426Y-74120147D01*
X83320273Y-74228320D01*
X83085241Y-74385363D01*
X82885363Y-74585241D01*
X82728320Y-74820273D01*
X82620147Y-75081426D01*
X82565000Y-75358665D01*
X76660000Y-75358665D01*
X76660000Y-69588967D01*
X91271340Y-69588967D01*
X91271340Y-69911033D01*
X91334172Y-70226912D01*
X91457422Y-70524463D01*
X91636353Y-70792252D01*
X91864088Y-71019987D01*
X92131877Y-71198918D01*
X92429428Y-71322168D01*
X92745307Y-71385000D01*
X93067373Y-71385000D01*
X93383252Y-71322168D01*
X93680803Y-71198918D01*
X93948592Y-71019987D01*
X94176327Y-70792252D01*
X94355258Y-70524463D01*
X94478508Y-70226912D01*
X94541340Y-69911033D01*
X94541340Y-69588967D01*
X112365000Y-69588967D01*
X112365000Y-69911033D01*
X112427832Y-70226912D01*
X112551082Y-70524463D01*
X112730013Y-70792252D01*
X112957748Y-71019987D01*
X113225537Y-71198918D01*
X113523088Y-71322168D01*
X113838967Y-71385000D01*
X114161033Y-71385000D01*
X114476912Y-71322168D01*
X114774463Y-71198918D01*
X115042252Y-71019987D01*
X115269987Y-70792252D01*
X115448918Y-70524463D01*
X115572168Y-70226912D01*
X115635000Y-69911033D01*
X115635000Y-69588967D01*
X115572168Y-69273088D01*
X115459051Y-69000000D01*
X127353837Y-69000000D01*
X127381544Y-69281309D01*
X127463598Y-69551808D01*
X127596848Y-69801101D01*
X127776172Y-70019608D01*
X127994679Y-70198932D01*
X128243972Y-70332182D01*
X128514471Y-70414236D01*
X128725288Y-70435000D01*
X128866272Y-70435000D01*
X129077089Y-70414236D01*
X129347588Y-70332182D01*
X129596881Y-70198932D01*
X129815388Y-70019608D01*
X129994712Y-69801101D01*
X130127962Y-69551808D01*
X130210016Y-69281309D01*
X130237723Y-69000000D01*
X130223803Y-68858665D01*
X137520780Y-68858665D01*
X137520780Y-69141335D01*
X137575927Y-69418574D01*
X137684100Y-69679727D01*
X137841143Y-69914759D01*
X138041021Y-70114637D01*
X138276053Y-70271680D01*
X138537206Y-70379853D01*
X138814445Y-70435000D01*
X139097115Y-70435000D01*
X139374354Y-70379853D01*
X139635507Y-70271680D01*
X139870539Y-70114637D01*
X140070417Y-69914759D01*
X140227460Y-69679727D01*
X140335633Y-69418574D01*
X140390780Y-69141335D01*
X140390780Y-68858665D01*
X140335633Y-68581426D01*
X140227460Y-68320273D01*
X140070417Y-68085241D01*
X139870539Y-67885363D01*
X139635507Y-67728320D01*
X139374354Y-67620147D01*
X139097115Y-67565000D01*
X138814445Y-67565000D01*
X138537206Y-67620147D01*
X138276053Y-67728320D01*
X138041021Y-67885363D01*
X137841143Y-68085241D01*
X137684100Y-68320273D01*
X137575927Y-68581426D01*
X137520780Y-68858665D01*
X130223803Y-68858665D01*
X130210016Y-68718691D01*
X130127962Y-68448192D01*
X129994712Y-68198899D01*
X129815388Y-67980392D01*
X129596881Y-67801068D01*
X129347588Y-67667818D01*
X129077089Y-67585764D01*
X128866272Y-67565000D01*
X128725288Y-67565000D01*
X128514471Y-67585764D01*
X128243972Y-67667818D01*
X127994679Y-67801068D01*
X127776172Y-67980392D01*
X127596848Y-68198899D01*
X127463598Y-68448192D01*
X127381544Y-68718691D01*
X127353837Y-69000000D01*
X115459051Y-69000000D01*
X115448918Y-68975537D01*
X115269987Y-68707748D01*
X115042252Y-68480013D01*
X114774463Y-68301082D01*
X114476912Y-68177832D01*
X114161033Y-68115000D01*
X113838967Y-68115000D01*
X113523088Y-68177832D01*
X113225537Y-68301082D01*
X112957748Y-68480013D01*
X112730013Y-68707748D01*
X112551082Y-68975537D01*
X112427832Y-69273088D01*
X112365000Y-69588967D01*
X94541340Y-69588967D01*
X94478508Y-69273088D01*
X94355258Y-68975537D01*
X94176327Y-68707748D01*
X93948592Y-68480013D01*
X93680803Y-68301082D01*
X93383252Y-68177832D01*
X93067373Y-68115000D01*
X92745307Y-68115000D01*
X92429428Y-68177832D01*
X92131877Y-68301082D01*
X91864088Y-68480013D01*
X91636353Y-68707748D01*
X91457422Y-68975537D01*
X91334172Y-69273088D01*
X91271340Y-69588967D01*
X76660000Y-69588967D01*
X76660000Y-67098212D01*
X84151340Y-67098212D01*
X84151340Y-67321788D01*
X84194957Y-67541067D01*
X84280516Y-67747624D01*
X84404728Y-67933520D01*
X84562820Y-68091612D01*
X84748716Y-68215824D01*
X84955273Y-68301383D01*
X85174552Y-68345000D01*
X85398128Y-68345000D01*
X85617407Y-68301383D01*
X85823964Y-68215824D01*
X86009860Y-68091612D01*
X86167952Y-67933520D01*
X86292164Y-67747624D01*
X86377723Y-67541067D01*
X86421340Y-67321788D01*
X86421340Y-67098212D01*
X105245000Y-67098212D01*
X105245000Y-67321788D01*
X105288617Y-67541067D01*
X105374176Y-67747624D01*
X105498388Y-67933520D01*
X105656480Y-68091612D01*
X105842376Y-68215824D01*
X106048933Y-68301383D01*
X106268212Y-68345000D01*
X106491788Y-68345000D01*
X106711067Y-68301383D01*
X106917624Y-68215824D01*
X107103520Y-68091612D01*
X107261612Y-67933520D01*
X107385824Y-67747624D01*
X107471383Y-67541067D01*
X107515000Y-67321788D01*
X107515000Y-67098212D01*
X107471383Y-66878933D01*
X107385824Y-66672376D01*
X107261612Y-66486480D01*
X107103520Y-66328388D01*
X106917624Y-66204176D01*
X106711067Y-66118617D01*
X106491788Y-66075000D01*
X106268212Y-66075000D01*
X106048933Y-66118617D01*
X105842376Y-66204176D01*
X105656480Y-66328388D01*
X105498388Y-66486480D01*
X105374176Y-66672376D01*
X105288617Y-66878933D01*
X105245000Y-67098212D01*
X86421340Y-67098212D01*
X86377723Y-66878933D01*
X86292164Y-66672376D01*
X86167952Y-66486480D01*
X86009860Y-66328388D01*
X85823964Y-66204176D01*
X85617407Y-66118617D01*
X85398128Y-66075000D01*
X85174552Y-66075000D01*
X84955273Y-66118617D01*
X84748716Y-66204176D01*
X84562820Y-66328388D01*
X84404728Y-66486480D01*
X84280516Y-66672376D01*
X84194957Y-66878933D01*
X84151340Y-67098212D01*
X76660000Y-67098212D01*
X76660000Y-64508967D01*
X86191340Y-64508967D01*
X86191340Y-64831033D01*
X86254172Y-65146912D01*
X86377422Y-65444463D01*
X86556353Y-65712252D01*
X86784088Y-65939987D01*
X87051877Y-66118918D01*
X87349428Y-66242168D01*
X87665307Y-66305000D01*
X87987373Y-66305000D01*
X88303252Y-66242168D01*
X88600803Y-66118918D01*
X88868592Y-65939987D01*
X89096327Y-65712252D01*
X89275258Y-65444463D01*
X89398508Y-65146912D01*
X89461340Y-64831033D01*
X89461340Y-64508967D01*
X107285000Y-64508967D01*
X107285000Y-64831033D01*
X107347832Y-65146912D01*
X107471082Y-65444463D01*
X107650013Y-65712252D01*
X107877748Y-65939987D01*
X108145537Y-66118918D01*
X108443088Y-66242168D01*
X108758967Y-66305000D01*
X109081033Y-66305000D01*
X109396912Y-66242168D01*
X109694463Y-66118918D01*
X109962252Y-65939987D01*
X110189987Y-65712252D01*
X110368918Y-65444463D01*
X110492168Y-65146912D01*
X110555000Y-64831033D01*
X110555000Y-64508967D01*
X110492168Y-64193088D01*
X110368918Y-63895537D01*
X110189987Y-63627748D01*
X109962252Y-63400013D01*
X109837376Y-63316573D01*
X137209920Y-63316573D01*
X137209920Y-63668187D01*
X137278516Y-64013045D01*
X137413073Y-64337895D01*
X137608420Y-64630251D01*
X137857049Y-64878880D01*
X138149405Y-65074227D01*
X138474255Y-65208784D01*
X138819113Y-65277380D01*
X139170727Y-65277380D01*
X139515585Y-65208784D01*
X139840435Y-65074227D01*
X140132791Y-64878880D01*
X140381420Y-64630251D01*
X140576767Y-64337895D01*
X140711324Y-64013045D01*
X140779920Y-63668187D01*
X140779920Y-63316573D01*
X140711324Y-62971715D01*
X140576767Y-62646865D01*
X140381420Y-62354509D01*
X140132791Y-62105880D01*
X139840435Y-61910533D01*
X139515585Y-61775976D01*
X139170727Y-61707380D01*
X138819113Y-61707380D01*
X138474255Y-61775976D01*
X138149405Y-61910533D01*
X137857049Y-62105880D01*
X137608420Y-62354509D01*
X137413073Y-62646865D01*
X137278516Y-62971715D01*
X137209920Y-63316573D01*
X109837376Y-63316573D01*
X109694463Y-63221082D01*
X109396912Y-63097832D01*
X109081033Y-63035000D01*
X108758967Y-63035000D01*
X108443088Y-63097832D01*
X108145537Y-63221082D01*
X107877748Y-63400013D01*
X107650013Y-63627748D01*
X107471082Y-63895537D01*
X107347832Y-64193088D01*
X107285000Y-64508967D01*
X89461340Y-64508967D01*
X89398508Y-64193088D01*
X89275258Y-63895537D01*
X89096327Y-63627748D01*
X88868592Y-63400013D01*
X88600803Y-63221082D01*
X88303252Y-63097832D01*
X87987373Y-63035000D01*
X87665307Y-63035000D01*
X87349428Y-63097832D01*
X87051877Y-63221082D01*
X86784088Y-63400013D01*
X86556353Y-63627748D01*
X86377422Y-63895537D01*
X86254172Y-64193088D01*
X86191340Y-64508967D01*
X76660000Y-64508967D01*
X76660000Y-62018212D01*
X91771340Y-62018212D01*
X91771340Y-62241788D01*
X91814957Y-62461067D01*
X91900516Y-62667624D01*
X92024728Y-62853520D01*
X92182820Y-63011612D01*
X92368716Y-63135824D01*
X92575273Y-63221383D01*
X92794552Y-63265000D01*
X93018128Y-63265000D01*
X93237407Y-63221383D01*
X93443964Y-63135824D01*
X93629860Y-63011612D01*
X93787952Y-62853520D01*
X93912164Y-62667624D01*
X93997723Y-62461067D01*
X94041340Y-62241788D01*
X94041340Y-62018212D01*
X112865000Y-62018212D01*
X112865000Y-62241788D01*
X112908617Y-62461067D01*
X112994176Y-62667624D01*
X113118388Y-62853520D01*
X113276480Y-63011612D01*
X113462376Y-63135824D01*
X113668933Y-63221383D01*
X113888212Y-63265000D01*
X114111788Y-63265000D01*
X114331067Y-63221383D01*
X114537624Y-63135824D01*
X114723520Y-63011612D01*
X114881612Y-62853520D01*
X115005824Y-62667624D01*
X115091383Y-62461067D01*
X115135000Y-62241788D01*
X115135000Y-62018212D01*
X115091383Y-61798933D01*
X115005824Y-61592376D01*
X114881612Y-61406480D01*
X114723520Y-61248388D01*
X114537624Y-61124176D01*
X114331067Y-61038617D01*
X114111788Y-60995000D01*
X113888212Y-60995000D01*
X113668933Y-61038617D01*
X113462376Y-61124176D01*
X113276480Y-61248388D01*
X113118388Y-61406480D01*
X112994176Y-61592376D01*
X112908617Y-61798933D01*
X112865000Y-62018212D01*
X94041340Y-62018212D01*
X93997723Y-61798933D01*
X93912164Y-61592376D01*
X93787952Y-61406480D01*
X93629860Y-61248388D01*
X93443964Y-61124176D01*
X93237407Y-61038617D01*
X93018128Y-60995000D01*
X92794552Y-60995000D01*
X92575273Y-61038617D01*
X92368716Y-61124176D01*
X92182820Y-61248388D01*
X92024728Y-61406480D01*
X91900516Y-61592376D01*
X91814957Y-61798933D01*
X91771340Y-62018212D01*
X76660000Y-62018212D01*
X76660000Y-60816573D01*
X127209920Y-60816573D01*
X127209920Y-61168187D01*
X127278516Y-61513045D01*
X127413073Y-61837895D01*
X127608420Y-62130251D01*
X127857049Y-62378880D01*
X128149405Y-62574227D01*
X128474255Y-62708784D01*
X128819113Y-62777380D01*
X129170727Y-62777380D01*
X129515585Y-62708784D01*
X129840435Y-62574227D01*
X130132791Y-62378880D01*
X130381420Y-62130251D01*
X130576767Y-61837895D01*
X130711324Y-61513045D01*
X130779920Y-61168187D01*
X130779920Y-60816573D01*
X130711324Y-60471715D01*
X130576767Y-60146865D01*
X130381420Y-59854509D01*
X130132791Y-59605880D01*
X129840435Y-59410533D01*
X129515585Y-59275976D01*
X129170727Y-59207380D01*
X128819113Y-59207380D01*
X128474255Y-59275976D01*
X128149405Y-59410533D01*
X127857049Y-59605880D01*
X127608420Y-59854509D01*
X127413073Y-60146865D01*
X127278516Y-60471715D01*
X127209920Y-60816573D01*
X76660000Y-60816573D01*
X76660000Y-58316573D01*
X137209920Y-58316573D01*
X137209920Y-58668187D01*
X137278516Y-59013045D01*
X137413073Y-59337895D01*
X137608420Y-59630251D01*
X137857049Y-59878880D01*
X138149405Y-60074227D01*
X138474255Y-60208784D01*
X138819113Y-60277380D01*
X139170727Y-60277380D01*
X139515585Y-60208784D01*
X139840435Y-60074227D01*
X140132791Y-59878880D01*
X140381420Y-59630251D01*
X140576767Y-59337895D01*
X140711324Y-59013045D01*
X140779920Y-58668187D01*
X140779920Y-58316573D01*
X140711324Y-57971715D01*
X140576767Y-57646865D01*
X140381420Y-57354509D01*
X140132791Y-57105880D01*
X139840435Y-56910533D01*
X139515585Y-56775976D01*
X139170727Y-56707380D01*
X138819113Y-56707380D01*
X138474255Y-56775976D01*
X138149405Y-56910533D01*
X137857049Y-57105880D01*
X137608420Y-57354509D01*
X137413073Y-57646865D01*
X137278516Y-57971715D01*
X137209920Y-58316573D01*
X76660000Y-58316573D01*
X76660000Y-50320475D01*
X108910000Y-50320475D01*
X108910000Y-50839525D01*
X109011261Y-51348601D01*
X109209893Y-51828141D01*
X109498262Y-52259715D01*
X109865285Y-52626738D01*
X110296859Y-52915107D01*
X110776399Y-53113739D01*
X111285475Y-53215000D01*
X111804525Y-53215000D01*
X112313601Y-53113739D01*
X112793141Y-52915107D01*
X113224715Y-52626738D01*
X113591738Y-52259715D01*
X113869583Y-51843891D01*
X116915000Y-51843891D01*
X116915000Y-52156109D01*
X116975911Y-52462327D01*
X117095391Y-52750779D01*
X117268850Y-53010379D01*
X117489621Y-53231150D01*
X117749221Y-53404609D01*
X118037673Y-53524089D01*
X118343891Y-53585000D01*
X118656109Y-53585000D01*
X118962327Y-53524089D01*
X119250779Y-53404609D01*
X119510379Y-53231150D01*
X119731150Y-53010379D01*
X119885000Y-52780126D01*
X120038850Y-53010379D01*
X120259621Y-53231150D01*
X120519221Y-53404609D01*
X120807673Y-53524089D01*
X121113891Y-53585000D01*
X121426109Y-53585000D01*
X121732327Y-53524089D01*
X122020779Y-53404609D01*
X122280379Y-53231150D01*
X122411777Y-53099752D01*
X123119853Y-53099752D01*
X123209579Y-53359042D01*
X123490671Y-53494935D01*
X123792873Y-53573379D01*
X124104573Y-53591359D01*
X124413791Y-53548184D01*
X124708644Y-53445513D01*
X124870421Y-53359042D01*
X124960147Y-53099752D01*
X124040000Y-52179605D01*
X123119853Y-53099752D01*
X122411777Y-53099752D01*
X122501150Y-53010379D01*
X122654486Y-52780895D01*
X122680958Y-52830421D01*
X122940248Y-52920147D01*
X123860395Y-52000000D01*
X122940248Y-51079853D01*
X122680958Y-51169579D01*
X122655953Y-51221301D01*
X122501150Y-50989621D01*
X122280379Y-50768850D01*
X122089676Y-50641427D01*
X122192673Y-50684089D01*
X122498891Y-50745000D01*
X122811109Y-50745000D01*
X123117327Y-50684089D01*
X123207592Y-50646700D01*
X123119853Y-50900248D01*
X124040000Y-51820395D01*
X124960147Y-50900248D01*
X124872408Y-50646700D01*
X124962673Y-50684089D01*
X125268891Y-50745000D01*
X125581109Y-50745000D01*
X125887327Y-50684089D01*
X125990324Y-50641427D01*
X125799621Y-50768850D01*
X125578850Y-50989621D01*
X125425514Y-51219105D01*
X125399042Y-51169579D01*
X125139752Y-51079853D01*
X124219605Y-52000000D01*
X125139752Y-52920147D01*
X125399042Y-52830421D01*
X125424047Y-52778699D01*
X125578850Y-53010379D01*
X125799621Y-53231150D01*
X126059221Y-53404609D01*
X126347673Y-53524089D01*
X126653891Y-53585000D01*
X126966109Y-53585000D01*
X127272327Y-53524089D01*
X127560779Y-53404609D01*
X127820379Y-53231150D01*
X128041150Y-53010379D01*
X128195000Y-52780126D01*
X128348850Y-53010379D01*
X128569621Y-53231150D01*
X128829221Y-53404609D01*
X129117673Y-53524089D01*
X129423891Y-53585000D01*
X129736109Y-53585000D01*
X130042327Y-53524089D01*
X130330779Y-53404609D01*
X130590379Y-53231150D01*
X130811150Y-53010379D01*
X130984609Y-52750779D01*
X131104089Y-52462327D01*
X131165000Y-52156109D01*
X131165000Y-51843891D01*
X131104089Y-51537673D01*
X130984609Y-51249221D01*
X130811150Y-50989621D01*
X130590379Y-50768850D01*
X130330779Y-50595391D01*
X130042327Y-50475911D01*
X129736109Y-50415000D01*
X129423891Y-50415000D01*
X129117673Y-50475911D01*
X129014676Y-50518573D01*
X129205379Y-50391150D01*
X129276054Y-50320475D01*
X133900000Y-50320475D01*
X133900000Y-50839525D01*
X134001261Y-51348601D01*
X134199893Y-51828141D01*
X134488262Y-52259715D01*
X134855285Y-52626738D01*
X135286859Y-52915107D01*
X135766399Y-53113739D01*
X136275475Y-53215000D01*
X136794525Y-53215000D01*
X137303601Y-53113739D01*
X137783141Y-52915107D01*
X137881017Y-52849708D01*
X142597920Y-52849708D01*
X142597920Y-53124892D01*
X142651606Y-53394790D01*
X142756915Y-53649027D01*
X142909800Y-53877835D01*
X143104385Y-54072420D01*
X143333193Y-54225305D01*
X143425239Y-54263432D01*
X143338273Y-54299455D01*
X143109465Y-54452340D01*
X142914880Y-54646925D01*
X142761995Y-54875733D01*
X142656686Y-55129970D01*
X142603000Y-55399868D01*
X142603000Y-55675052D01*
X142656686Y-55944950D01*
X142761995Y-56199187D01*
X142914880Y-56427995D01*
X143109465Y-56622580D01*
X143338273Y-56775465D01*
X143592510Y-56880774D01*
X143862408Y-56934460D01*
X144137592Y-56934460D01*
X144407490Y-56880774D01*
X144661727Y-56775465D01*
X144890535Y-56622580D01*
X145085120Y-56427995D01*
X145238005Y-56199187D01*
X145343314Y-55944950D01*
X145397000Y-55675052D01*
X145397000Y-55399868D01*
X145343314Y-55129970D01*
X145238005Y-54875733D01*
X145085120Y-54646925D01*
X144890535Y-54452340D01*
X144661727Y-54299455D01*
X144569681Y-54261328D01*
X144656647Y-54225305D01*
X144885455Y-54072420D01*
X145080040Y-53877835D01*
X145232925Y-53649027D01*
X145338234Y-53394790D01*
X145391920Y-53124892D01*
X145391920Y-52849708D01*
X145338234Y-52579810D01*
X145232925Y-52325573D01*
X145080040Y-52096765D01*
X144885455Y-51902180D01*
X144656647Y-51749295D01*
X144402410Y-51643986D01*
X144132512Y-51590300D01*
X143857328Y-51590300D01*
X143587430Y-51643986D01*
X143333193Y-51749295D01*
X143104385Y-51902180D01*
X142909800Y-52096765D01*
X142756915Y-52325573D01*
X142651606Y-52579810D01*
X142597920Y-52849708D01*
X137881017Y-52849708D01*
X138214715Y-52626738D01*
X138581738Y-52259715D01*
X138870107Y-51828141D01*
X139068739Y-51348601D01*
X139170000Y-50839525D01*
X139170000Y-50320475D01*
X139145626Y-50197935D01*
X145175000Y-50197935D01*
X145175000Y-50716985D01*
X145276261Y-51226061D01*
X145474893Y-51705601D01*
X145763262Y-52137175D01*
X146130285Y-52504198D01*
X146561859Y-52792567D01*
X147041399Y-52991199D01*
X147550475Y-53092460D01*
X148069525Y-53092460D01*
X148578601Y-52991199D01*
X149058141Y-52792567D01*
X149489715Y-52504198D01*
X149856738Y-52137175D01*
X150145107Y-51705601D01*
X150343739Y-51226061D01*
X150445000Y-50716985D01*
X150445000Y-50197935D01*
X160415000Y-50197935D01*
X160415000Y-50716985D01*
X160516261Y-51226061D01*
X160714893Y-51705601D01*
X161003262Y-52137175D01*
X161370285Y-52504198D01*
X161801859Y-52792567D01*
X162281399Y-52991199D01*
X162790475Y-53092460D01*
X163309525Y-53092460D01*
X163818601Y-52991199D01*
X164135662Y-52859868D01*
X165463000Y-52859868D01*
X165463000Y-53135052D01*
X165516686Y-53404950D01*
X165621995Y-53659187D01*
X165774880Y-53887995D01*
X165969465Y-54082580D01*
X166198273Y-54235465D01*
X166275515Y-54267460D01*
X166198273Y-54299455D01*
X165969465Y-54452340D01*
X165774880Y-54646925D01*
X165621995Y-54875733D01*
X165516686Y-55129970D01*
X165463000Y-55399868D01*
X165463000Y-55675052D01*
X165516686Y-55944950D01*
X165621995Y-56199187D01*
X165774880Y-56427995D01*
X165969465Y-56622580D01*
X166198273Y-56775465D01*
X166452510Y-56880774D01*
X166722408Y-56934460D01*
X166997592Y-56934460D01*
X167267490Y-56880774D01*
X167521727Y-56775465D01*
X167750535Y-56622580D01*
X167945120Y-56427995D01*
X168098005Y-56199187D01*
X168203314Y-55944950D01*
X168257000Y-55675052D01*
X168257000Y-55399868D01*
X168203314Y-55129970D01*
X168098005Y-54875733D01*
X167945120Y-54646925D01*
X167750535Y-54452340D01*
X167521727Y-54299455D01*
X167444485Y-54267460D01*
X167521727Y-54235465D01*
X167750535Y-54082580D01*
X167945120Y-53887995D01*
X168098005Y-53659187D01*
X168203314Y-53404950D01*
X168257000Y-53135052D01*
X168257000Y-52859868D01*
X168203314Y-52589970D01*
X168098005Y-52335733D01*
X167945120Y-52106925D01*
X167750535Y-51912340D01*
X167521727Y-51759455D01*
X167267490Y-51654146D01*
X166997592Y-51600460D01*
X166722408Y-51600460D01*
X166452510Y-51654146D01*
X166198273Y-51759455D01*
X165969465Y-51912340D01*
X165774880Y-52106925D01*
X165621995Y-52335733D01*
X165516686Y-52589970D01*
X165463000Y-52859868D01*
X164135662Y-52859868D01*
X164298141Y-52792567D01*
X164729715Y-52504198D01*
X165096738Y-52137175D01*
X165385107Y-51705601D01*
X165583739Y-51226061D01*
X165685000Y-50716985D01*
X165685000Y-50197935D01*
X165583739Y-49688859D01*
X165385107Y-49209319D01*
X165096738Y-48777745D01*
X164729715Y-48410722D01*
X164298141Y-48122353D01*
X163818601Y-47923721D01*
X163309525Y-47822460D01*
X162790475Y-47822460D01*
X162281399Y-47923721D01*
X161801859Y-48122353D01*
X161370285Y-48410722D01*
X161003262Y-48777745D01*
X160714893Y-49209319D01*
X160516261Y-49688859D01*
X160415000Y-50197935D01*
X150445000Y-50197935D01*
X150343739Y-49688859D01*
X150145107Y-49209319D01*
X149856738Y-48777745D01*
X149489715Y-48410722D01*
X149058141Y-48122353D01*
X148578601Y-47923721D01*
X148069525Y-47822460D01*
X147550475Y-47822460D01*
X147041399Y-47923721D01*
X146561859Y-48122353D01*
X146130285Y-48410722D01*
X145763262Y-48777745D01*
X145474893Y-49209319D01*
X145276261Y-49688859D01*
X145175000Y-50197935D01*
X139145626Y-50197935D01*
X139068739Y-49811399D01*
X138870107Y-49331859D01*
X138581738Y-48900285D01*
X138214715Y-48533262D01*
X137783141Y-48244893D01*
X137303601Y-48046261D01*
X136794525Y-47945000D01*
X136275475Y-47945000D01*
X135766399Y-48046261D01*
X135286859Y-48244893D01*
X134855285Y-48533262D01*
X134488262Y-48900285D01*
X134199893Y-49331859D01*
X134001261Y-49811399D01*
X133900000Y-50320475D01*
X129276054Y-50320475D01*
X129426150Y-50170379D01*
X129599609Y-49910779D01*
X129719089Y-49622327D01*
X129780000Y-49316109D01*
X129780000Y-49003891D01*
X129719089Y-48697673D01*
X129599609Y-48409221D01*
X129426150Y-48149621D01*
X129205379Y-47928850D01*
X128945779Y-47755391D01*
X128657327Y-47635911D01*
X128351109Y-47575000D01*
X128038891Y-47575000D01*
X127732673Y-47635911D01*
X127444221Y-47755391D01*
X127184621Y-47928850D01*
X126963850Y-48149621D01*
X126810000Y-48379874D01*
X126656150Y-48149621D01*
X126435379Y-47928850D01*
X126175779Y-47755391D01*
X125887327Y-47635911D01*
X125581109Y-47575000D01*
X125268891Y-47575000D01*
X124962673Y-47635911D01*
X124674221Y-47755391D01*
X124414621Y-47928850D01*
X124193850Y-48149621D01*
X124040000Y-48379874D01*
X123886150Y-48149621D01*
X123665379Y-47928850D01*
X123405779Y-47755391D01*
X123117327Y-47635911D01*
X122811109Y-47575000D01*
X122498891Y-47575000D01*
X122192673Y-47635911D01*
X121904221Y-47755391D01*
X121644621Y-47928850D01*
X121423850Y-48149621D01*
X121270000Y-48379874D01*
X121116150Y-48149621D01*
X120895379Y-47928850D01*
X120635779Y-47755391D01*
X120347327Y-47635911D01*
X120041109Y-47575000D01*
X119728891Y-47575000D01*
X119422673Y-47635911D01*
X119134221Y-47755391D01*
X118874621Y-47928850D01*
X118653850Y-48149621D01*
X118480391Y-48409221D01*
X118360911Y-48697673D01*
X118300000Y-49003891D01*
X118300000Y-49316109D01*
X118360911Y-49622327D01*
X118480391Y-49910779D01*
X118653850Y-50170379D01*
X118874621Y-50391150D01*
X119065324Y-50518573D01*
X118962327Y-50475911D01*
X118656109Y-50415000D01*
X118343891Y-50415000D01*
X118037673Y-50475911D01*
X117749221Y-50595391D01*
X117489621Y-50768850D01*
X117268850Y-50989621D01*
X117095391Y-51249221D01*
X116975911Y-51537673D01*
X116915000Y-51843891D01*
X113869583Y-51843891D01*
X113880107Y-51828141D01*
X114078739Y-51348601D01*
X114180000Y-50839525D01*
X114180000Y-50320475D01*
X114078739Y-49811399D01*
X113880107Y-49331859D01*
X113591738Y-48900285D01*
X113224715Y-48533262D01*
X112793141Y-48244893D01*
X112313601Y-48046261D01*
X111804525Y-47945000D01*
X111285475Y-47945000D01*
X110776399Y-48046261D01*
X110296859Y-48244893D01*
X109865285Y-48533262D01*
X109498262Y-48900285D01*
X109209893Y-49331859D01*
X109011261Y-49811399D01*
X108910000Y-50320475D01*
X76660000Y-50320475D01*
X76660000Y-44783645D01*
X141282520Y-44783645D01*
X141282520Y-45066315D01*
X141337667Y-45343554D01*
X141445840Y-45604707D01*
X141602883Y-45839739D01*
X141802761Y-46039617D01*
X142037793Y-46196660D01*
X142298946Y-46304833D01*
X142576185Y-46359980D01*
X142858855Y-46359980D01*
X143136094Y-46304833D01*
X143397247Y-46196660D01*
X143632279Y-46039617D01*
X143832157Y-45839739D01*
X143989200Y-45604707D01*
X144037050Y-45489187D01*
X144084900Y-45604707D01*
X144241943Y-45839739D01*
X144441821Y-46039617D01*
X144676853Y-46196660D01*
X144938006Y-46304833D01*
X145215245Y-46359980D01*
X145497915Y-46359980D01*
X145775154Y-46304833D01*
X146036307Y-46196660D01*
X146271339Y-46039617D01*
X146471217Y-45839739D01*
X146628260Y-45604707D01*
X146676110Y-45489187D01*
X146723960Y-45604707D01*
X146881003Y-45839739D01*
X147080881Y-46039617D01*
X147315913Y-46196660D01*
X147577066Y-46304833D01*
X147854305Y-46359980D01*
X148136975Y-46359980D01*
X148414214Y-46304833D01*
X148675367Y-46196660D01*
X148910399Y-46039617D01*
X149110277Y-45839739D01*
X149267320Y-45604707D01*
X149315170Y-45489187D01*
X149363020Y-45604707D01*
X149520063Y-45839739D01*
X149719941Y-46039617D01*
X149954973Y-46196660D01*
X150216126Y-46304833D01*
X150493365Y-46359980D01*
X150776035Y-46359980D01*
X151053274Y-46304833D01*
X151314427Y-46196660D01*
X151549459Y-46039617D01*
X151749337Y-45839739D01*
X151906380Y-45604707D01*
X152014553Y-45343554D01*
X152069700Y-45066315D01*
X152069700Y-44800245D01*
X158794360Y-44800245D01*
X158794360Y-45082915D01*
X158849507Y-45360154D01*
X158957680Y-45621307D01*
X159114723Y-45856339D01*
X159314601Y-46056217D01*
X159549633Y-46213260D01*
X159810786Y-46321433D01*
X160088025Y-46376580D01*
X160370695Y-46376580D01*
X160647934Y-46321433D01*
X160909087Y-46213260D01*
X161144119Y-46056217D01*
X161343997Y-45856339D01*
X161501040Y-45621307D01*
X161547580Y-45508950D01*
X161595660Y-45625027D01*
X161752703Y-45860059D01*
X161952581Y-46059937D01*
X162187613Y-46216980D01*
X162448766Y-46325153D01*
X162726005Y-46380300D01*
X163008675Y-46380300D01*
X163285914Y-46325153D01*
X163547067Y-46216980D01*
X163782099Y-46059937D01*
X163981977Y-45860059D01*
X164139020Y-45625027D01*
X164186870Y-45509507D01*
X164234720Y-45625027D01*
X164391763Y-45860059D01*
X164591641Y-46059937D01*
X164826673Y-46216980D01*
X165087826Y-46325153D01*
X165365065Y-46380300D01*
X165647735Y-46380300D01*
X165924974Y-46325153D01*
X166186127Y-46216980D01*
X166421159Y-46059937D01*
X166621037Y-45860059D01*
X166778080Y-45625027D01*
X166825930Y-45509507D01*
X166873780Y-45625027D01*
X167030823Y-45860059D01*
X167230701Y-46059937D01*
X167465733Y-46216980D01*
X167726886Y-46325153D01*
X168004125Y-46380300D01*
X168286795Y-46380300D01*
X168564034Y-46325153D01*
X168825187Y-46216980D01*
X169060219Y-46059937D01*
X169260097Y-45860059D01*
X169417140Y-45625027D01*
X169525313Y-45363874D01*
X169580460Y-45086635D01*
X169580460Y-44803965D01*
X169525313Y-44526726D01*
X169417140Y-44265573D01*
X169260097Y-44030541D01*
X169060219Y-43830663D01*
X168859591Y-43696608D01*
X168886974Y-43681971D01*
X168958557Y-43438002D01*
X168145460Y-42624905D01*
X167332363Y-43438002D01*
X167403946Y-43681971D01*
X167432801Y-43695624D01*
X167230701Y-43830663D01*
X167030823Y-44030541D01*
X166873780Y-44265573D01*
X166825930Y-44381093D01*
X166778080Y-44265573D01*
X166621037Y-44030541D01*
X166421159Y-43830663D01*
X166220531Y-43696608D01*
X166247914Y-43681971D01*
X166319497Y-43438002D01*
X165506400Y-42624905D01*
X164693303Y-43438002D01*
X164764886Y-43681971D01*
X164793741Y-43695624D01*
X164591641Y-43830663D01*
X164391763Y-44030541D01*
X164234720Y-44265573D01*
X164186870Y-44381093D01*
X164139020Y-44265573D01*
X163981977Y-44030541D01*
X163782099Y-43830663D01*
X163581471Y-43696608D01*
X163608854Y-43681971D01*
X163680437Y-43438002D01*
X162867340Y-42624905D01*
X162054243Y-43438002D01*
X162125826Y-43681971D01*
X162154681Y-43695624D01*
X161952581Y-43830663D01*
X161752703Y-44030541D01*
X161595660Y-44265573D01*
X161549120Y-44377930D01*
X161501040Y-44261853D01*
X161343997Y-44026821D01*
X161144119Y-43826943D01*
X160943491Y-43692888D01*
X160970874Y-43678251D01*
X161042457Y-43434282D01*
X160229360Y-42621185D01*
X159416263Y-43434282D01*
X159487846Y-43678251D01*
X159516701Y-43691904D01*
X159314601Y-43826943D01*
X159114723Y-44026821D01*
X158957680Y-44261853D01*
X158849507Y-44523006D01*
X158794360Y-44800245D01*
X152069700Y-44800245D01*
X152069700Y-44783645D01*
X152014553Y-44506406D01*
X151906380Y-44245253D01*
X151749337Y-44010221D01*
X151549459Y-43810343D01*
X151348831Y-43676288D01*
X151376214Y-43661651D01*
X151447797Y-43417682D01*
X150634700Y-42604585D01*
X149821603Y-43417682D01*
X149893186Y-43661651D01*
X149922041Y-43675304D01*
X149719941Y-43810343D01*
X149520063Y-44010221D01*
X149363020Y-44245253D01*
X149315170Y-44360773D01*
X149267320Y-44245253D01*
X149110277Y-44010221D01*
X148910399Y-43810343D01*
X148709771Y-43676288D01*
X148737154Y-43661651D01*
X148808737Y-43417682D01*
X147995640Y-42604585D01*
X147182543Y-43417682D01*
X147254126Y-43661651D01*
X147282981Y-43675304D01*
X147080881Y-43810343D01*
X146881003Y-44010221D01*
X146723960Y-44245253D01*
X146676110Y-44360773D01*
X146628260Y-44245253D01*
X146471217Y-44010221D01*
X146271339Y-43810343D01*
X146070711Y-43676288D01*
X146098094Y-43661651D01*
X146169677Y-43417682D01*
X145356580Y-42604585D01*
X144543483Y-43417682D01*
X144615066Y-43661651D01*
X144643921Y-43675304D01*
X144441821Y-43810343D01*
X144241943Y-44010221D01*
X144084900Y-44245253D01*
X144037050Y-44360773D01*
X143989200Y-44245253D01*
X143832157Y-44010221D01*
X143632279Y-43810343D01*
X143431651Y-43676288D01*
X143459034Y-43661651D01*
X143530617Y-43417682D01*
X142717520Y-42604585D01*
X141904423Y-43417682D01*
X141976006Y-43661651D01*
X142004861Y-43675304D01*
X141802761Y-43810343D01*
X141602883Y-44010221D01*
X141445840Y-44245253D01*
X141337667Y-44506406D01*
X141282520Y-44783645D01*
X76660000Y-44783645D01*
X76660000Y-44032279D01*
X76707670Y-43546107D01*
X76839489Y-43109502D01*
X77053600Y-42706815D01*
X77341848Y-42353388D01*
X77693261Y-42062673D01*
X78094439Y-41845758D01*
X78530113Y-41710894D01*
X79014344Y-41660000D01*
X141560826Y-41660000D01*
X141480849Y-41683466D01*
X141480849Y-41683466D01*
G37*
X141480849Y-41683466D02*
X141359949Y-41938976D01*
X141291220Y-42213164D01*
X141277303Y-42495492D01*
X141318733Y-42775110D01*
X141413917Y-43041272D01*
X141480849Y-43166494D01*
X141724818Y-43238077D01*
X142537915Y-42424980D01*
X142523773Y-42410838D01*
X142703378Y-42231233D01*
X142717520Y-42245375D01*
X142731663Y-42231233D01*
X142911268Y-42410838D01*
X142897125Y-42424980D01*
X143710222Y-43238077D01*
X143954191Y-43166494D01*
X144035959Y-42993685D01*
X144052977Y-43041272D01*
X144119909Y-43166494D01*
X144363878Y-43238077D01*
X145176975Y-42424980D01*
X145162833Y-42410838D01*
X145342438Y-42231233D01*
X145356580Y-42245375D01*
X145370723Y-42231233D01*
X145550328Y-42410838D01*
X145536185Y-42424980D01*
X146349282Y-43238077D01*
X146593251Y-43166494D01*
X146675019Y-42993685D01*
X146692037Y-43041272D01*
X146758969Y-43166494D01*
X147002938Y-43238077D01*
X147816035Y-42424980D01*
X147801893Y-42410838D01*
X147981498Y-42231233D01*
X147995640Y-42245375D01*
X148009783Y-42231233D01*
X148189388Y-42410838D01*
X148175245Y-42424980D01*
X148988342Y-43238077D01*
X149232311Y-43166494D01*
X149314079Y-42993685D01*
X149331097Y-43041272D01*
X149398029Y-43166494D01*
X149641998Y-43238077D01*
X150455095Y-42424980D01*
X150440953Y-42410838D01*
X150620558Y-42231233D01*
X150634700Y-42245375D01*
X150648843Y-42231233D01*
X150828448Y-42410838D01*
X150814305Y-42424980D01*
X151627402Y-43238077D01*
X151871371Y-43166494D01*
X151992271Y-42910984D01*
X152061000Y-42636796D01*
X152074917Y-42354468D01*
X152033487Y-42074850D01*
X151938303Y-41808688D01*
X151871371Y-41683466D01*
X151791394Y-41660000D01*
X159129242Y-41660000D01*
X158992689Y-41700066D01*
X158871789Y-41955576D01*
X158803060Y-42229764D01*
X158789143Y-42512092D01*
X158830573Y-42791710D01*
X158925757Y-43057872D01*
X158992689Y-43183094D01*
X159236658Y-43254677D01*
X160049755Y-42441580D01*
X160035613Y-42427438D01*
X160215218Y-42247833D01*
X160229360Y-42261975D01*
X160243503Y-42247833D01*
X160423108Y-42427438D01*
X160408965Y-42441580D01*
X161222062Y-43254677D01*
X161466031Y-43183094D01*
X161546426Y-43013186D01*
X161563737Y-43061592D01*
X161630669Y-43186814D01*
X161874638Y-43258397D01*
X162687735Y-42445300D01*
X162673593Y-42431158D01*
X162853198Y-42251553D01*
X162867340Y-42265695D01*
X162881483Y-42251553D01*
X163061088Y-42431158D01*
X163046945Y-42445300D01*
X163860042Y-43258397D01*
X164104011Y-43186814D01*
X164185779Y-43014005D01*
X164202797Y-43061592D01*
X164269729Y-43186814D01*
X164513698Y-43258397D01*
X165326795Y-42445300D01*
X165312653Y-42431158D01*
X165492258Y-42251553D01*
X165506400Y-42265695D01*
X165520543Y-42251553D01*
X165700148Y-42431158D01*
X165686005Y-42445300D01*
X166499102Y-43258397D01*
X166743071Y-43186814D01*
X166824839Y-43014005D01*
X166841857Y-43061592D01*
X166908789Y-43186814D01*
X167152758Y-43258397D01*
X167965855Y-42445300D01*
X167951713Y-42431158D01*
X168131318Y-42251553D01*
X168145460Y-42265695D01*
X168159603Y-42251553D01*
X168339208Y-42431158D01*
X168325065Y-42445300D01*
X169138162Y-43258397D01*
X169382131Y-43186814D01*
X169503031Y-42931304D01*
X169571760Y-42657116D01*
X169585677Y-42374788D01*
X169544247Y-42095170D01*
X169449063Y-41829008D01*
X169382131Y-41703786D01*
X169365995Y-41699051D01*
X169453893Y-41707670D01*
X169890498Y-41839489D01*
X170293185Y-42053600D01*
X170646612Y-42341848D01*
X170937327Y-42693261D01*
X171154242Y-43094439D01*
X171289106Y-43530113D01*
X171340000Y-44014344D01*
X171340001Y-85967711D01*
X171292330Y-86453894D01*
X171160512Y-86890497D01*
X170946399Y-87293186D01*
X170658150Y-87646613D01*
X170306739Y-87937327D01*
X169905564Y-88154240D01*
X169469886Y-88289106D01*
X168985664Y-88340000D01*
X79032279Y-88340000D01*
X78546106Y-88292330D01*
X78109503Y-88160512D01*
X77706814Y-87946399D01*
X77353387Y-87658150D01*
X77062673Y-87306739D01*
X76845760Y-86905564D01*
X76710894Y-86469886D01*
X76660000Y-85985664D01*
X76660000Y-85000000D01*
X127398057Y-85000000D01*
X127425764Y-85281309D01*
X127507818Y-85551808D01*
X127641068Y-85801101D01*
X127820392Y-86019608D01*
X128038899Y-86198932D01*
X128288192Y-86332182D01*
X128558691Y-86414236D01*
X128769508Y-86435000D01*
X128910492Y-86435000D01*
X129121309Y-86414236D01*
X129391808Y-86332182D01*
X129641101Y-86198932D01*
X129859608Y-86019608D01*
X130038932Y-85801101D01*
X130172182Y-85551808D01*
X130254236Y-85281309D01*
X130281943Y-85000000D01*
X130268023Y-84858665D01*
X137565000Y-84858665D01*
X137565000Y-85141335D01*
X137620147Y-85418574D01*
X137728320Y-85679727D01*
X137885363Y-85914759D01*
X138085241Y-86114637D01*
X138320273Y-86271680D01*
X138581426Y-86379853D01*
X138858665Y-86435000D01*
X139141335Y-86435000D01*
X139418574Y-86379853D01*
X139679727Y-86271680D01*
X139914759Y-86114637D01*
X140114637Y-85914759D01*
X140271680Y-85679727D01*
X140379853Y-85418574D01*
X140435000Y-85141335D01*
X140435000Y-84858665D01*
X140379853Y-84581426D01*
X140271680Y-84320273D01*
X140114637Y-84085241D01*
X139914759Y-83885363D01*
X139679727Y-83728320D01*
X139418574Y-83620147D01*
X139141335Y-83565000D01*
X138858665Y-83565000D01*
X138581426Y-83620147D01*
X138320273Y-83728320D01*
X138085241Y-83885363D01*
X137885363Y-84085241D01*
X137728320Y-84320273D01*
X137620147Y-84581426D01*
X137565000Y-84858665D01*
X130268023Y-84858665D01*
X130254236Y-84718691D01*
X130172182Y-84448192D01*
X130038932Y-84198899D01*
X129859608Y-83980392D01*
X129641101Y-83801068D01*
X129391808Y-83667818D01*
X129121309Y-83585764D01*
X128910492Y-83565000D01*
X128769508Y-83565000D01*
X128558691Y-83585764D01*
X128288192Y-83667818D01*
X128038899Y-83801068D01*
X127820392Y-83980392D01*
X127641068Y-84198899D01*
X127507818Y-84448192D01*
X127425764Y-84718691D01*
X127398057Y-85000000D01*
X76660000Y-85000000D01*
X76660000Y-79316573D01*
X137209920Y-79316573D01*
X137209920Y-79668187D01*
X137278516Y-80013045D01*
X137413073Y-80337895D01*
X137608420Y-80630251D01*
X137857049Y-80878880D01*
X138149405Y-81074227D01*
X138474255Y-81208784D01*
X138819113Y-81277380D01*
X139170727Y-81277380D01*
X139515585Y-81208784D01*
X139840435Y-81074227D01*
X140132791Y-80878880D01*
X140333736Y-80677935D01*
X145175000Y-80677935D01*
X145175000Y-81196985D01*
X145276261Y-81706061D01*
X145474893Y-82185601D01*
X145763262Y-82617175D01*
X146130285Y-82984198D01*
X146561859Y-83272567D01*
X147041399Y-83471199D01*
X147550475Y-83572460D01*
X148069525Y-83572460D01*
X148578601Y-83471199D01*
X149058141Y-83272567D01*
X149489715Y-82984198D01*
X149856738Y-82617175D01*
X150145107Y-82185601D01*
X150343739Y-81706061D01*
X150445000Y-81196985D01*
X150445000Y-80677935D01*
X160415000Y-80677935D01*
X160415000Y-81196985D01*
X160516261Y-81706061D01*
X160714893Y-82185601D01*
X161003262Y-82617175D01*
X161370285Y-82984198D01*
X161801859Y-83272567D01*
X162281399Y-83471199D01*
X162790475Y-83572460D01*
X163309525Y-83572460D01*
X163818601Y-83471199D01*
X164298141Y-83272567D01*
X164729715Y-82984198D01*
X165096738Y-82617175D01*
X165385107Y-82185601D01*
X165583739Y-81706061D01*
X165685000Y-81196985D01*
X165685000Y-80677935D01*
X165583739Y-80168859D01*
X165385107Y-79689319D01*
X165096738Y-79257745D01*
X164729715Y-78890722D01*
X164298141Y-78602353D01*
X163818601Y-78403721D01*
X163309525Y-78302460D01*
X162790475Y-78302460D01*
X162281399Y-78403721D01*
X161801859Y-78602353D01*
X161370285Y-78890722D01*
X161003262Y-79257745D01*
X160714893Y-79689319D01*
X160516261Y-80168859D01*
X160415000Y-80677935D01*
X150445000Y-80677935D01*
X150343739Y-80168859D01*
X150145107Y-79689319D01*
X149856738Y-79257745D01*
X149489715Y-78890722D01*
X149058141Y-78602353D01*
X148578601Y-78403721D01*
X148069525Y-78302460D01*
X147550475Y-78302460D01*
X147041399Y-78403721D01*
X146561859Y-78602353D01*
X146130285Y-78890722D01*
X145763262Y-79257745D01*
X145474893Y-79689319D01*
X145276261Y-80168859D01*
X145175000Y-80677935D01*
X140333736Y-80677935D01*
X140381420Y-80630251D01*
X140576767Y-80337895D01*
X140711324Y-80013045D01*
X140779920Y-79668187D01*
X140779920Y-79316573D01*
X140711324Y-78971715D01*
X140576767Y-78646865D01*
X140381420Y-78354509D01*
X140132791Y-78105880D01*
X139840435Y-77910533D01*
X139515585Y-77775976D01*
X139170727Y-77707380D01*
X138819113Y-77707380D01*
X138474255Y-77775976D01*
X138149405Y-77910533D01*
X137857049Y-78105880D01*
X137608420Y-78354509D01*
X137413073Y-78646865D01*
X137278516Y-78971715D01*
X137209920Y-79316573D01*
X76660000Y-79316573D01*
X76660000Y-75358665D01*
X82565000Y-75358665D01*
X82565000Y-75641335D01*
X82620147Y-75918574D01*
X82728320Y-76179727D01*
X82885363Y-76414759D01*
X83085241Y-76614637D01*
X83320273Y-76771680D01*
X83581426Y-76879853D01*
X83858665Y-76935000D01*
X84141335Y-76935000D01*
X84418574Y-76879853D01*
X84679727Y-76771680D01*
X84914759Y-76614637D01*
X85114637Y-76414759D01*
X85271680Y-76179727D01*
X85379853Y-75918574D01*
X85393684Y-75849039D01*
X92768096Y-75849039D01*
X92808754Y-75983087D01*
X92928963Y-76237420D01*
X93096481Y-76463414D01*
X93304869Y-76652385D01*
X93546119Y-76797070D01*
X93810960Y-76891909D01*
X94033000Y-76770624D01*
X94033000Y-75627000D01*
X94287000Y-75627000D01*
X94287000Y-76770624D01*
X94509040Y-76891909D01*
X94773881Y-76797070D01*
X95015131Y-76652385D01*
X95223519Y-76463414D01*
X95391037Y-76237420D01*
X95511246Y-75983087D01*
X95551904Y-75849039D01*
X95429915Y-75627000D01*
X94287000Y-75627000D01*
X94033000Y-75627000D01*
X92890085Y-75627000D01*
X92768096Y-75849039D01*
X85393684Y-75849039D01*
X85435000Y-75641335D01*
X85435000Y-75358665D01*
X85393685Y-75150961D01*
X92768096Y-75150961D01*
X92890085Y-75373000D01*
X94033000Y-75373000D01*
X94033000Y-74229376D01*
X94287000Y-74229376D01*
X94287000Y-75373000D01*
X95429915Y-75373000D01*
X95439757Y-75355085D01*
X103654960Y-75355085D01*
X103654960Y-75637755D01*
X103710107Y-75914994D01*
X103818280Y-76176147D01*
X103975323Y-76411179D01*
X104175201Y-76611057D01*
X104410233Y-76768100D01*
X104671386Y-76876273D01*
X104948625Y-76931420D01*
X105231295Y-76931420D01*
X105508534Y-76876273D01*
X105769687Y-76768100D01*
X106004719Y-76611057D01*
X106204597Y-76411179D01*
X106361640Y-76176147D01*
X106469813Y-75914994D01*
X106483644Y-75845459D01*
X113858056Y-75845459D01*
X113898714Y-75979507D01*
X114018923Y-76233840D01*
X114186441Y-76459834D01*
X114394829Y-76648805D01*
X114636079Y-76793490D01*
X114900920Y-76888329D01*
X115122960Y-76767044D01*
X115122960Y-75623420D01*
X115376960Y-75623420D01*
X115376960Y-76767044D01*
X115599000Y-76888329D01*
X115799380Y-76816573D01*
X127209920Y-76816573D01*
X127209920Y-77168187D01*
X127278516Y-77513045D01*
X127413073Y-77837895D01*
X127608420Y-78130251D01*
X127857049Y-78378880D01*
X128149405Y-78574227D01*
X128474255Y-78708784D01*
X128819113Y-78777380D01*
X129170727Y-78777380D01*
X129515585Y-78708784D01*
X129840435Y-78574227D01*
X130132791Y-78378880D01*
X130381420Y-78130251D01*
X130576767Y-77837895D01*
X130711324Y-77513045D01*
X130779920Y-77168187D01*
X130779920Y-76816573D01*
X130711324Y-76471715D01*
X130576767Y-76146865D01*
X130381420Y-75854509D01*
X130132791Y-75605880D01*
X129840435Y-75410533D01*
X129515585Y-75275976D01*
X129170727Y-75207380D01*
X128819113Y-75207380D01*
X128474255Y-75275976D01*
X128149405Y-75410533D01*
X127857049Y-75605880D01*
X127608420Y-75854509D01*
X127413073Y-76146865D01*
X127278516Y-76471715D01*
X127209920Y-76816573D01*
X115799380Y-76816573D01*
X115863841Y-76793490D01*
X116105091Y-76648805D01*
X116313479Y-76459834D01*
X116480997Y-76233840D01*
X116601206Y-75979507D01*
X116641864Y-75845459D01*
X116519875Y-75623420D01*
X115376960Y-75623420D01*
X115122960Y-75623420D01*
X113980045Y-75623420D01*
X113858056Y-75845459D01*
X106483644Y-75845459D01*
X106524960Y-75637755D01*
X106524960Y-75355085D01*
X106483645Y-75147381D01*
X113858056Y-75147381D01*
X113980045Y-75369420D01*
X115122960Y-75369420D01*
X115122960Y-74225796D01*
X115376960Y-74225796D01*
X115376960Y-75369420D01*
X116519875Y-75369420D01*
X116641864Y-75147381D01*
X116601206Y-75013333D01*
X116480997Y-74759000D01*
X116313479Y-74533006D01*
X116105091Y-74344035D01*
X116059301Y-74316573D01*
X137209920Y-74316573D01*
X137209920Y-74668187D01*
X137278516Y-75013045D01*
X137413073Y-75337895D01*
X137608420Y-75630251D01*
X137857049Y-75878880D01*
X138149405Y-76074227D01*
X138474255Y-76208784D01*
X138819113Y-76277380D01*
X139170727Y-76277380D01*
X139515585Y-76208784D01*
X139840435Y-76074227D01*
X140132791Y-75878880D01*
X140291803Y-75719868D01*
X142603000Y-75719868D01*
X142603000Y-75995052D01*
X142656686Y-76264950D01*
X142761995Y-76519187D01*
X142914880Y-76747995D01*
X143109465Y-76942580D01*
X143338273Y-77095465D01*
X143415515Y-77127460D01*
X143338273Y-77159455D01*
X143109465Y-77312340D01*
X142914880Y-77506925D01*
X142761995Y-77735733D01*
X142656686Y-77989970D01*
X142603000Y-78259868D01*
X142603000Y-78535052D01*
X142656686Y-78804950D01*
X142761995Y-79059187D01*
X142914880Y-79287995D01*
X143109465Y-79482580D01*
X143338273Y-79635465D01*
X143592510Y-79740774D01*
X143862408Y-79794460D01*
X144137592Y-79794460D01*
X144407490Y-79740774D01*
X144661727Y-79635465D01*
X144890535Y-79482580D01*
X145085120Y-79287995D01*
X145238005Y-79059187D01*
X145343314Y-78804950D01*
X145397000Y-78535052D01*
X145397000Y-78259868D01*
X145343314Y-77989970D01*
X145238005Y-77735733D01*
X145085120Y-77506925D01*
X144890535Y-77312340D01*
X144661727Y-77159455D01*
X144584485Y-77127460D01*
X144661727Y-77095465D01*
X144890535Y-76942580D01*
X145085120Y-76747995D01*
X145238005Y-76519187D01*
X145343314Y-76264950D01*
X145397000Y-75995052D01*
X145397000Y-75719868D01*
X165463000Y-75719868D01*
X165463000Y-75995052D01*
X165516686Y-76264950D01*
X165621995Y-76519187D01*
X165774880Y-76747995D01*
X165969465Y-76942580D01*
X166198273Y-77095465D01*
X166275515Y-77127460D01*
X166198273Y-77159455D01*
X165969465Y-77312340D01*
X165774880Y-77506925D01*
X165621995Y-77735733D01*
X165516686Y-77989970D01*
X165463000Y-78259868D01*
X165463000Y-78535052D01*
X165516686Y-78804950D01*
X165621995Y-79059187D01*
X165774880Y-79287995D01*
X165969465Y-79482580D01*
X166198273Y-79635465D01*
X166452510Y-79740774D01*
X166722408Y-79794460D01*
X166997592Y-79794460D01*
X167267490Y-79740774D01*
X167521727Y-79635465D01*
X167750535Y-79482580D01*
X167945120Y-79287995D01*
X168098005Y-79059187D01*
X168203314Y-78804950D01*
X168257000Y-78535052D01*
X168257000Y-78259868D01*
X168203314Y-77989970D01*
X168098005Y-77735733D01*
X167945120Y-77506925D01*
X167750535Y-77312340D01*
X167521727Y-77159455D01*
X167444485Y-77127460D01*
X167521727Y-77095465D01*
X167750535Y-76942580D01*
X167945120Y-76747995D01*
X168098005Y-76519187D01*
X168203314Y-76264950D01*
X168257000Y-75995052D01*
X168257000Y-75719868D01*
X168203314Y-75449970D01*
X168098005Y-75195733D01*
X167945120Y-74966925D01*
X167750535Y-74772340D01*
X167521727Y-74619455D01*
X167267490Y-74514146D01*
X166997592Y-74460460D01*
X166722408Y-74460460D01*
X166452510Y-74514146D01*
X166198273Y-74619455D01*
X165969465Y-74772340D01*
X165774880Y-74966925D01*
X165621995Y-75195733D01*
X165516686Y-75449970D01*
X165463000Y-75719868D01*
X145397000Y-75719868D01*
X145343314Y-75449970D01*
X145238005Y-75195733D01*
X145085120Y-74966925D01*
X144890535Y-74772340D01*
X144661727Y-74619455D01*
X144407490Y-74514146D01*
X144137592Y-74460460D01*
X143862408Y-74460460D01*
X143592510Y-74514146D01*
X143338273Y-74619455D01*
X143109465Y-74772340D01*
X142914880Y-74966925D01*
X142761995Y-75195733D01*
X142656686Y-75449970D01*
X142603000Y-75719868D01*
X140291803Y-75719868D01*
X140381420Y-75630251D01*
X140576767Y-75337895D01*
X140711324Y-75013045D01*
X140779920Y-74668187D01*
X140779920Y-74316573D01*
X140711324Y-73971715D01*
X140576767Y-73646865D01*
X140381420Y-73354509D01*
X140132791Y-73105880D01*
X139840435Y-72910533D01*
X139515585Y-72775976D01*
X139170727Y-72707380D01*
X138819113Y-72707380D01*
X138474255Y-72775976D01*
X138149405Y-72910533D01*
X137857049Y-73105880D01*
X137608420Y-73354509D01*
X137413073Y-73646865D01*
X137278516Y-73971715D01*
X137209920Y-74316573D01*
X116059301Y-74316573D01*
X115863841Y-74199350D01*
X115599000Y-74104511D01*
X115376960Y-74225796D01*
X115122960Y-74225796D01*
X114900920Y-74104511D01*
X114636079Y-74199350D01*
X114394829Y-74344035D01*
X114186441Y-74533006D01*
X114018923Y-74759000D01*
X113898714Y-75013333D01*
X113858056Y-75147381D01*
X106483645Y-75147381D01*
X106469813Y-75077846D01*
X106361640Y-74816693D01*
X106204597Y-74581661D01*
X106004719Y-74381783D01*
X105769687Y-74224740D01*
X105508534Y-74116567D01*
X105231295Y-74061420D01*
X104948625Y-74061420D01*
X104671386Y-74116567D01*
X104410233Y-74224740D01*
X104175201Y-74381783D01*
X103975323Y-74581661D01*
X103818280Y-74816693D01*
X103710107Y-75077846D01*
X103654960Y-75355085D01*
X95439757Y-75355085D01*
X95551904Y-75150961D01*
X95511246Y-75016913D01*
X95391037Y-74762580D01*
X95223519Y-74536586D01*
X95015131Y-74347615D01*
X94773881Y-74202930D01*
X94509040Y-74108091D01*
X94287000Y-74229376D01*
X94033000Y-74229376D01*
X93810960Y-74108091D01*
X93546119Y-74202930D01*
X93304869Y-74347615D01*
X93096481Y-74536586D01*
X92928963Y-74762580D01*
X92808754Y-75016913D01*
X92768096Y-75150961D01*
X85393685Y-75150961D01*
X85379853Y-75081426D01*
X85271680Y-74820273D01*
X85114637Y-74585241D01*
X84914759Y-74385363D01*
X84679727Y-74228320D01*
X84418574Y-74120147D01*
X84141335Y-74065000D01*
X83858665Y-74065000D01*
X83581426Y-74120147D01*
X83320273Y-74228320D01*
X83085241Y-74385363D01*
X82885363Y-74585241D01*
X82728320Y-74820273D01*
X82620147Y-75081426D01*
X82565000Y-75358665D01*
X76660000Y-75358665D01*
X76660000Y-69588967D01*
X91271340Y-69588967D01*
X91271340Y-69911033D01*
X91334172Y-70226912D01*
X91457422Y-70524463D01*
X91636353Y-70792252D01*
X91864088Y-71019987D01*
X92131877Y-71198918D01*
X92429428Y-71322168D01*
X92745307Y-71385000D01*
X93067373Y-71385000D01*
X93383252Y-71322168D01*
X93680803Y-71198918D01*
X93948592Y-71019987D01*
X94176327Y-70792252D01*
X94355258Y-70524463D01*
X94478508Y-70226912D01*
X94541340Y-69911033D01*
X94541340Y-69588967D01*
X112365000Y-69588967D01*
X112365000Y-69911033D01*
X112427832Y-70226912D01*
X112551082Y-70524463D01*
X112730013Y-70792252D01*
X112957748Y-71019987D01*
X113225537Y-71198918D01*
X113523088Y-71322168D01*
X113838967Y-71385000D01*
X114161033Y-71385000D01*
X114476912Y-71322168D01*
X114774463Y-71198918D01*
X115042252Y-71019987D01*
X115269987Y-70792252D01*
X115448918Y-70524463D01*
X115572168Y-70226912D01*
X115635000Y-69911033D01*
X115635000Y-69588967D01*
X115572168Y-69273088D01*
X115459051Y-69000000D01*
X127353837Y-69000000D01*
X127381544Y-69281309D01*
X127463598Y-69551808D01*
X127596848Y-69801101D01*
X127776172Y-70019608D01*
X127994679Y-70198932D01*
X128243972Y-70332182D01*
X128514471Y-70414236D01*
X128725288Y-70435000D01*
X128866272Y-70435000D01*
X129077089Y-70414236D01*
X129347588Y-70332182D01*
X129596881Y-70198932D01*
X129815388Y-70019608D01*
X129994712Y-69801101D01*
X130127962Y-69551808D01*
X130210016Y-69281309D01*
X130237723Y-69000000D01*
X130223803Y-68858665D01*
X137520780Y-68858665D01*
X137520780Y-69141335D01*
X137575927Y-69418574D01*
X137684100Y-69679727D01*
X137841143Y-69914759D01*
X138041021Y-70114637D01*
X138276053Y-70271680D01*
X138537206Y-70379853D01*
X138814445Y-70435000D01*
X139097115Y-70435000D01*
X139374354Y-70379853D01*
X139635507Y-70271680D01*
X139870539Y-70114637D01*
X140070417Y-69914759D01*
X140227460Y-69679727D01*
X140335633Y-69418574D01*
X140390780Y-69141335D01*
X140390780Y-68858665D01*
X140335633Y-68581426D01*
X140227460Y-68320273D01*
X140070417Y-68085241D01*
X139870539Y-67885363D01*
X139635507Y-67728320D01*
X139374354Y-67620147D01*
X139097115Y-67565000D01*
X138814445Y-67565000D01*
X138537206Y-67620147D01*
X138276053Y-67728320D01*
X138041021Y-67885363D01*
X137841143Y-68085241D01*
X137684100Y-68320273D01*
X137575927Y-68581426D01*
X137520780Y-68858665D01*
X130223803Y-68858665D01*
X130210016Y-68718691D01*
X130127962Y-68448192D01*
X129994712Y-68198899D01*
X129815388Y-67980392D01*
X129596881Y-67801068D01*
X129347588Y-67667818D01*
X129077089Y-67585764D01*
X128866272Y-67565000D01*
X128725288Y-67565000D01*
X128514471Y-67585764D01*
X128243972Y-67667818D01*
X127994679Y-67801068D01*
X127776172Y-67980392D01*
X127596848Y-68198899D01*
X127463598Y-68448192D01*
X127381544Y-68718691D01*
X127353837Y-69000000D01*
X115459051Y-69000000D01*
X115448918Y-68975537D01*
X115269987Y-68707748D01*
X115042252Y-68480013D01*
X114774463Y-68301082D01*
X114476912Y-68177832D01*
X114161033Y-68115000D01*
X113838967Y-68115000D01*
X113523088Y-68177832D01*
X113225537Y-68301082D01*
X112957748Y-68480013D01*
X112730013Y-68707748D01*
X112551082Y-68975537D01*
X112427832Y-69273088D01*
X112365000Y-69588967D01*
X94541340Y-69588967D01*
X94478508Y-69273088D01*
X94355258Y-68975537D01*
X94176327Y-68707748D01*
X93948592Y-68480013D01*
X93680803Y-68301082D01*
X93383252Y-68177832D01*
X93067373Y-68115000D01*
X92745307Y-68115000D01*
X92429428Y-68177832D01*
X92131877Y-68301082D01*
X91864088Y-68480013D01*
X91636353Y-68707748D01*
X91457422Y-68975537D01*
X91334172Y-69273088D01*
X91271340Y-69588967D01*
X76660000Y-69588967D01*
X76660000Y-67098212D01*
X84151340Y-67098212D01*
X84151340Y-67321788D01*
X84194957Y-67541067D01*
X84280516Y-67747624D01*
X84404728Y-67933520D01*
X84562820Y-68091612D01*
X84748716Y-68215824D01*
X84955273Y-68301383D01*
X85174552Y-68345000D01*
X85398128Y-68345000D01*
X85617407Y-68301383D01*
X85823964Y-68215824D01*
X86009860Y-68091612D01*
X86167952Y-67933520D01*
X86292164Y-67747624D01*
X86377723Y-67541067D01*
X86421340Y-67321788D01*
X86421340Y-67098212D01*
X105245000Y-67098212D01*
X105245000Y-67321788D01*
X105288617Y-67541067D01*
X105374176Y-67747624D01*
X105498388Y-67933520D01*
X105656480Y-68091612D01*
X105842376Y-68215824D01*
X106048933Y-68301383D01*
X106268212Y-68345000D01*
X106491788Y-68345000D01*
X106711067Y-68301383D01*
X106917624Y-68215824D01*
X107103520Y-68091612D01*
X107261612Y-67933520D01*
X107385824Y-67747624D01*
X107471383Y-67541067D01*
X107515000Y-67321788D01*
X107515000Y-67098212D01*
X107471383Y-66878933D01*
X107385824Y-66672376D01*
X107261612Y-66486480D01*
X107103520Y-66328388D01*
X106917624Y-66204176D01*
X106711067Y-66118617D01*
X106491788Y-66075000D01*
X106268212Y-66075000D01*
X106048933Y-66118617D01*
X105842376Y-66204176D01*
X105656480Y-66328388D01*
X105498388Y-66486480D01*
X105374176Y-66672376D01*
X105288617Y-66878933D01*
X105245000Y-67098212D01*
X86421340Y-67098212D01*
X86377723Y-66878933D01*
X86292164Y-66672376D01*
X86167952Y-66486480D01*
X86009860Y-66328388D01*
X85823964Y-66204176D01*
X85617407Y-66118617D01*
X85398128Y-66075000D01*
X85174552Y-66075000D01*
X84955273Y-66118617D01*
X84748716Y-66204176D01*
X84562820Y-66328388D01*
X84404728Y-66486480D01*
X84280516Y-66672376D01*
X84194957Y-66878933D01*
X84151340Y-67098212D01*
X76660000Y-67098212D01*
X76660000Y-64508967D01*
X86191340Y-64508967D01*
X86191340Y-64831033D01*
X86254172Y-65146912D01*
X86377422Y-65444463D01*
X86556353Y-65712252D01*
X86784088Y-65939987D01*
X87051877Y-66118918D01*
X87349428Y-66242168D01*
X87665307Y-66305000D01*
X87987373Y-66305000D01*
X88303252Y-66242168D01*
X88600803Y-66118918D01*
X88868592Y-65939987D01*
X89096327Y-65712252D01*
X89275258Y-65444463D01*
X89398508Y-65146912D01*
X89461340Y-64831033D01*
X89461340Y-64508967D01*
X107285000Y-64508967D01*
X107285000Y-64831033D01*
X107347832Y-65146912D01*
X107471082Y-65444463D01*
X107650013Y-65712252D01*
X107877748Y-65939987D01*
X108145537Y-66118918D01*
X108443088Y-66242168D01*
X108758967Y-66305000D01*
X109081033Y-66305000D01*
X109396912Y-66242168D01*
X109694463Y-66118918D01*
X109962252Y-65939987D01*
X110189987Y-65712252D01*
X110368918Y-65444463D01*
X110492168Y-65146912D01*
X110555000Y-64831033D01*
X110555000Y-64508967D01*
X110492168Y-64193088D01*
X110368918Y-63895537D01*
X110189987Y-63627748D01*
X109962252Y-63400013D01*
X109837376Y-63316573D01*
X137209920Y-63316573D01*
X137209920Y-63668187D01*
X137278516Y-64013045D01*
X137413073Y-64337895D01*
X137608420Y-64630251D01*
X137857049Y-64878880D01*
X138149405Y-65074227D01*
X138474255Y-65208784D01*
X138819113Y-65277380D01*
X139170727Y-65277380D01*
X139515585Y-65208784D01*
X139840435Y-65074227D01*
X140132791Y-64878880D01*
X140381420Y-64630251D01*
X140576767Y-64337895D01*
X140711324Y-64013045D01*
X140779920Y-63668187D01*
X140779920Y-63316573D01*
X140711324Y-62971715D01*
X140576767Y-62646865D01*
X140381420Y-62354509D01*
X140132791Y-62105880D01*
X139840435Y-61910533D01*
X139515585Y-61775976D01*
X139170727Y-61707380D01*
X138819113Y-61707380D01*
X138474255Y-61775976D01*
X138149405Y-61910533D01*
X137857049Y-62105880D01*
X137608420Y-62354509D01*
X137413073Y-62646865D01*
X137278516Y-62971715D01*
X137209920Y-63316573D01*
X109837376Y-63316573D01*
X109694463Y-63221082D01*
X109396912Y-63097832D01*
X109081033Y-63035000D01*
X108758967Y-63035000D01*
X108443088Y-63097832D01*
X108145537Y-63221082D01*
X107877748Y-63400013D01*
X107650013Y-63627748D01*
X107471082Y-63895537D01*
X107347832Y-64193088D01*
X107285000Y-64508967D01*
X89461340Y-64508967D01*
X89398508Y-64193088D01*
X89275258Y-63895537D01*
X89096327Y-63627748D01*
X88868592Y-63400013D01*
X88600803Y-63221082D01*
X88303252Y-63097832D01*
X87987373Y-63035000D01*
X87665307Y-63035000D01*
X87349428Y-63097832D01*
X87051877Y-63221082D01*
X86784088Y-63400013D01*
X86556353Y-63627748D01*
X86377422Y-63895537D01*
X86254172Y-64193088D01*
X86191340Y-64508967D01*
X76660000Y-64508967D01*
X76660000Y-62018212D01*
X91771340Y-62018212D01*
X91771340Y-62241788D01*
X91814957Y-62461067D01*
X91900516Y-62667624D01*
X92024728Y-62853520D01*
X92182820Y-63011612D01*
X92368716Y-63135824D01*
X92575273Y-63221383D01*
X92794552Y-63265000D01*
X93018128Y-63265000D01*
X93237407Y-63221383D01*
X93443964Y-63135824D01*
X93629860Y-63011612D01*
X93787952Y-62853520D01*
X93912164Y-62667624D01*
X93997723Y-62461067D01*
X94041340Y-62241788D01*
X94041340Y-62018212D01*
X112865000Y-62018212D01*
X112865000Y-62241788D01*
X112908617Y-62461067D01*
X112994176Y-62667624D01*
X113118388Y-62853520D01*
X113276480Y-63011612D01*
X113462376Y-63135824D01*
X113668933Y-63221383D01*
X113888212Y-63265000D01*
X114111788Y-63265000D01*
X114331067Y-63221383D01*
X114537624Y-63135824D01*
X114723520Y-63011612D01*
X114881612Y-62853520D01*
X115005824Y-62667624D01*
X115091383Y-62461067D01*
X115135000Y-62241788D01*
X115135000Y-62018212D01*
X115091383Y-61798933D01*
X115005824Y-61592376D01*
X114881612Y-61406480D01*
X114723520Y-61248388D01*
X114537624Y-61124176D01*
X114331067Y-61038617D01*
X114111788Y-60995000D01*
X113888212Y-60995000D01*
X113668933Y-61038617D01*
X113462376Y-61124176D01*
X113276480Y-61248388D01*
X113118388Y-61406480D01*
X112994176Y-61592376D01*
X112908617Y-61798933D01*
X112865000Y-62018212D01*
X94041340Y-62018212D01*
X93997723Y-61798933D01*
X93912164Y-61592376D01*
X93787952Y-61406480D01*
X93629860Y-61248388D01*
X93443964Y-61124176D01*
X93237407Y-61038617D01*
X93018128Y-60995000D01*
X92794552Y-60995000D01*
X92575273Y-61038617D01*
X92368716Y-61124176D01*
X92182820Y-61248388D01*
X92024728Y-61406480D01*
X91900516Y-61592376D01*
X91814957Y-61798933D01*
X91771340Y-62018212D01*
X76660000Y-62018212D01*
X76660000Y-60816573D01*
X127209920Y-60816573D01*
X127209920Y-61168187D01*
X127278516Y-61513045D01*
X127413073Y-61837895D01*
X127608420Y-62130251D01*
X127857049Y-62378880D01*
X128149405Y-62574227D01*
X128474255Y-62708784D01*
X128819113Y-62777380D01*
X129170727Y-62777380D01*
X129515585Y-62708784D01*
X129840435Y-62574227D01*
X130132791Y-62378880D01*
X130381420Y-62130251D01*
X130576767Y-61837895D01*
X130711324Y-61513045D01*
X130779920Y-61168187D01*
X130779920Y-60816573D01*
X130711324Y-60471715D01*
X130576767Y-60146865D01*
X130381420Y-59854509D01*
X130132791Y-59605880D01*
X129840435Y-59410533D01*
X129515585Y-59275976D01*
X129170727Y-59207380D01*
X128819113Y-59207380D01*
X128474255Y-59275976D01*
X128149405Y-59410533D01*
X127857049Y-59605880D01*
X127608420Y-59854509D01*
X127413073Y-60146865D01*
X127278516Y-60471715D01*
X127209920Y-60816573D01*
X76660000Y-60816573D01*
X76660000Y-58316573D01*
X137209920Y-58316573D01*
X137209920Y-58668187D01*
X137278516Y-59013045D01*
X137413073Y-59337895D01*
X137608420Y-59630251D01*
X137857049Y-59878880D01*
X138149405Y-60074227D01*
X138474255Y-60208784D01*
X138819113Y-60277380D01*
X139170727Y-60277380D01*
X139515585Y-60208784D01*
X139840435Y-60074227D01*
X140132791Y-59878880D01*
X140381420Y-59630251D01*
X140576767Y-59337895D01*
X140711324Y-59013045D01*
X140779920Y-58668187D01*
X140779920Y-58316573D01*
X140711324Y-57971715D01*
X140576767Y-57646865D01*
X140381420Y-57354509D01*
X140132791Y-57105880D01*
X139840435Y-56910533D01*
X139515585Y-56775976D01*
X139170727Y-56707380D01*
X138819113Y-56707380D01*
X138474255Y-56775976D01*
X138149405Y-56910533D01*
X137857049Y-57105880D01*
X137608420Y-57354509D01*
X137413073Y-57646865D01*
X137278516Y-57971715D01*
X137209920Y-58316573D01*
X76660000Y-58316573D01*
X76660000Y-50320475D01*
X108910000Y-50320475D01*
X108910000Y-50839525D01*
X109011261Y-51348601D01*
X109209893Y-51828141D01*
X109498262Y-52259715D01*
X109865285Y-52626738D01*
X110296859Y-52915107D01*
X110776399Y-53113739D01*
X111285475Y-53215000D01*
X111804525Y-53215000D01*
X112313601Y-53113739D01*
X112793141Y-52915107D01*
X113224715Y-52626738D01*
X113591738Y-52259715D01*
X113869583Y-51843891D01*
X116915000Y-51843891D01*
X116915000Y-52156109D01*
X116975911Y-52462327D01*
X117095391Y-52750779D01*
X117268850Y-53010379D01*
X117489621Y-53231150D01*
X117749221Y-53404609D01*
X118037673Y-53524089D01*
X118343891Y-53585000D01*
X118656109Y-53585000D01*
X118962327Y-53524089D01*
X119250779Y-53404609D01*
X119510379Y-53231150D01*
X119731150Y-53010379D01*
X119885000Y-52780126D01*
X120038850Y-53010379D01*
X120259621Y-53231150D01*
X120519221Y-53404609D01*
X120807673Y-53524089D01*
X121113891Y-53585000D01*
X121426109Y-53585000D01*
X121732327Y-53524089D01*
X122020779Y-53404609D01*
X122280379Y-53231150D01*
X122411777Y-53099752D01*
X123119853Y-53099752D01*
X123209579Y-53359042D01*
X123490671Y-53494935D01*
X123792873Y-53573379D01*
X124104573Y-53591359D01*
X124413791Y-53548184D01*
X124708644Y-53445513D01*
X124870421Y-53359042D01*
X124960147Y-53099752D01*
X124040000Y-52179605D01*
X123119853Y-53099752D01*
X122411777Y-53099752D01*
X122501150Y-53010379D01*
X122654486Y-52780895D01*
X122680958Y-52830421D01*
X122940248Y-52920147D01*
X123860395Y-52000000D01*
X122940248Y-51079853D01*
X122680958Y-51169579D01*
X122655953Y-51221301D01*
X122501150Y-50989621D01*
X122280379Y-50768850D01*
X122089676Y-50641427D01*
X122192673Y-50684089D01*
X122498891Y-50745000D01*
X122811109Y-50745000D01*
X123117327Y-50684089D01*
X123207592Y-50646700D01*
X123119853Y-50900248D01*
X124040000Y-51820395D01*
X124960147Y-50900248D01*
X124872408Y-50646700D01*
X124962673Y-50684089D01*
X125268891Y-50745000D01*
X125581109Y-50745000D01*
X125887327Y-50684089D01*
X125990324Y-50641427D01*
X125799621Y-50768850D01*
X125578850Y-50989621D01*
X125425514Y-51219105D01*
X125399042Y-51169579D01*
X125139752Y-51079853D01*
X124219605Y-52000000D01*
X125139752Y-52920147D01*
X125399042Y-52830421D01*
X125424047Y-52778699D01*
X125578850Y-53010379D01*
X125799621Y-53231150D01*
X126059221Y-53404609D01*
X126347673Y-53524089D01*
X126653891Y-53585000D01*
X126966109Y-53585000D01*
X127272327Y-53524089D01*
X127560779Y-53404609D01*
X127820379Y-53231150D01*
X128041150Y-53010379D01*
X128195000Y-52780126D01*
X128348850Y-53010379D01*
X128569621Y-53231150D01*
X128829221Y-53404609D01*
X129117673Y-53524089D01*
X129423891Y-53585000D01*
X129736109Y-53585000D01*
X130042327Y-53524089D01*
X130330779Y-53404609D01*
X130590379Y-53231150D01*
X130811150Y-53010379D01*
X130984609Y-52750779D01*
X131104089Y-52462327D01*
X131165000Y-52156109D01*
X131165000Y-51843891D01*
X131104089Y-51537673D01*
X130984609Y-51249221D01*
X130811150Y-50989621D01*
X130590379Y-50768850D01*
X130330779Y-50595391D01*
X130042327Y-50475911D01*
X129736109Y-50415000D01*
X129423891Y-50415000D01*
X129117673Y-50475911D01*
X129014676Y-50518573D01*
X129205379Y-50391150D01*
X129276054Y-50320475D01*
X133900000Y-50320475D01*
X133900000Y-50839525D01*
X134001261Y-51348601D01*
X134199893Y-51828141D01*
X134488262Y-52259715D01*
X134855285Y-52626738D01*
X135286859Y-52915107D01*
X135766399Y-53113739D01*
X136275475Y-53215000D01*
X136794525Y-53215000D01*
X137303601Y-53113739D01*
X137783141Y-52915107D01*
X137881017Y-52849708D01*
X142597920Y-52849708D01*
X142597920Y-53124892D01*
X142651606Y-53394790D01*
X142756915Y-53649027D01*
X142909800Y-53877835D01*
X143104385Y-54072420D01*
X143333193Y-54225305D01*
X143425239Y-54263432D01*
X143338273Y-54299455D01*
X143109465Y-54452340D01*
X142914880Y-54646925D01*
X142761995Y-54875733D01*
X142656686Y-55129970D01*
X142603000Y-55399868D01*
X142603000Y-55675052D01*
X142656686Y-55944950D01*
X142761995Y-56199187D01*
X142914880Y-56427995D01*
X143109465Y-56622580D01*
X143338273Y-56775465D01*
X143592510Y-56880774D01*
X143862408Y-56934460D01*
X144137592Y-56934460D01*
X144407490Y-56880774D01*
X144661727Y-56775465D01*
X144890535Y-56622580D01*
X145085120Y-56427995D01*
X145238005Y-56199187D01*
X145343314Y-55944950D01*
X145397000Y-55675052D01*
X145397000Y-55399868D01*
X145343314Y-55129970D01*
X145238005Y-54875733D01*
X145085120Y-54646925D01*
X144890535Y-54452340D01*
X144661727Y-54299455D01*
X144569681Y-54261328D01*
X144656647Y-54225305D01*
X144885455Y-54072420D01*
X145080040Y-53877835D01*
X145232925Y-53649027D01*
X145338234Y-53394790D01*
X145391920Y-53124892D01*
X145391920Y-52849708D01*
X145338234Y-52579810D01*
X145232925Y-52325573D01*
X145080040Y-52096765D01*
X144885455Y-51902180D01*
X144656647Y-51749295D01*
X144402410Y-51643986D01*
X144132512Y-51590300D01*
X143857328Y-51590300D01*
X143587430Y-51643986D01*
X143333193Y-51749295D01*
X143104385Y-51902180D01*
X142909800Y-52096765D01*
X142756915Y-52325573D01*
X142651606Y-52579810D01*
X142597920Y-52849708D01*
X137881017Y-52849708D01*
X138214715Y-52626738D01*
X138581738Y-52259715D01*
X138870107Y-51828141D01*
X139068739Y-51348601D01*
X139170000Y-50839525D01*
X139170000Y-50320475D01*
X139145626Y-50197935D01*
X145175000Y-50197935D01*
X145175000Y-50716985D01*
X145276261Y-51226061D01*
X145474893Y-51705601D01*
X145763262Y-52137175D01*
X146130285Y-52504198D01*
X146561859Y-52792567D01*
X147041399Y-52991199D01*
X147550475Y-53092460D01*
X148069525Y-53092460D01*
X148578601Y-52991199D01*
X149058141Y-52792567D01*
X149489715Y-52504198D01*
X149856738Y-52137175D01*
X150145107Y-51705601D01*
X150343739Y-51226061D01*
X150445000Y-50716985D01*
X150445000Y-50197935D01*
X160415000Y-50197935D01*
X160415000Y-50716985D01*
X160516261Y-51226061D01*
X160714893Y-51705601D01*
X161003262Y-52137175D01*
X161370285Y-52504198D01*
X161801859Y-52792567D01*
X162281399Y-52991199D01*
X162790475Y-53092460D01*
X163309525Y-53092460D01*
X163818601Y-52991199D01*
X164135662Y-52859868D01*
X165463000Y-52859868D01*
X165463000Y-53135052D01*
X165516686Y-53404950D01*
X165621995Y-53659187D01*
X165774880Y-53887995D01*
X165969465Y-54082580D01*
X166198273Y-54235465D01*
X166275515Y-54267460D01*
X166198273Y-54299455D01*
X165969465Y-54452340D01*
X165774880Y-54646925D01*
X165621995Y-54875733D01*
X165516686Y-55129970D01*
X165463000Y-55399868D01*
X165463000Y-55675052D01*
X165516686Y-55944950D01*
X165621995Y-56199187D01*
X165774880Y-56427995D01*
X165969465Y-56622580D01*
X166198273Y-56775465D01*
X166452510Y-56880774D01*
X166722408Y-56934460D01*
X166997592Y-56934460D01*
X167267490Y-56880774D01*
X167521727Y-56775465D01*
X167750535Y-56622580D01*
X167945120Y-56427995D01*
X168098005Y-56199187D01*
X168203314Y-55944950D01*
X168257000Y-55675052D01*
X168257000Y-55399868D01*
X168203314Y-55129970D01*
X168098005Y-54875733D01*
X167945120Y-54646925D01*
X167750535Y-54452340D01*
X167521727Y-54299455D01*
X167444485Y-54267460D01*
X167521727Y-54235465D01*
X167750535Y-54082580D01*
X167945120Y-53887995D01*
X168098005Y-53659187D01*
X168203314Y-53404950D01*
X168257000Y-53135052D01*
X168257000Y-52859868D01*
X168203314Y-52589970D01*
X168098005Y-52335733D01*
X167945120Y-52106925D01*
X167750535Y-51912340D01*
X167521727Y-51759455D01*
X167267490Y-51654146D01*
X166997592Y-51600460D01*
X166722408Y-51600460D01*
X166452510Y-51654146D01*
X166198273Y-51759455D01*
X165969465Y-51912340D01*
X165774880Y-52106925D01*
X165621995Y-52335733D01*
X165516686Y-52589970D01*
X165463000Y-52859868D01*
X164135662Y-52859868D01*
X164298141Y-52792567D01*
X164729715Y-52504198D01*
X165096738Y-52137175D01*
X165385107Y-51705601D01*
X165583739Y-51226061D01*
X165685000Y-50716985D01*
X165685000Y-50197935D01*
X165583739Y-49688859D01*
X165385107Y-49209319D01*
X165096738Y-48777745D01*
X164729715Y-48410722D01*
X164298141Y-48122353D01*
X163818601Y-47923721D01*
X163309525Y-47822460D01*
X162790475Y-47822460D01*
X162281399Y-47923721D01*
X161801859Y-48122353D01*
X161370285Y-48410722D01*
X161003262Y-48777745D01*
X160714893Y-49209319D01*
X160516261Y-49688859D01*
X160415000Y-50197935D01*
X150445000Y-50197935D01*
X150343739Y-49688859D01*
X150145107Y-49209319D01*
X149856738Y-48777745D01*
X149489715Y-48410722D01*
X149058141Y-48122353D01*
X148578601Y-47923721D01*
X148069525Y-47822460D01*
X147550475Y-47822460D01*
X147041399Y-47923721D01*
X146561859Y-48122353D01*
X146130285Y-48410722D01*
X145763262Y-48777745D01*
X145474893Y-49209319D01*
X145276261Y-49688859D01*
X145175000Y-50197935D01*
X139145626Y-50197935D01*
X139068739Y-49811399D01*
X138870107Y-49331859D01*
X138581738Y-48900285D01*
X138214715Y-48533262D01*
X137783141Y-48244893D01*
X137303601Y-48046261D01*
X136794525Y-47945000D01*
X136275475Y-47945000D01*
X135766399Y-48046261D01*
X135286859Y-48244893D01*
X134855285Y-48533262D01*
X134488262Y-48900285D01*
X134199893Y-49331859D01*
X134001261Y-49811399D01*
X133900000Y-50320475D01*
X129276054Y-50320475D01*
X129426150Y-50170379D01*
X129599609Y-49910779D01*
X129719089Y-49622327D01*
X129780000Y-49316109D01*
X129780000Y-49003891D01*
X129719089Y-48697673D01*
X129599609Y-48409221D01*
X129426150Y-48149621D01*
X129205379Y-47928850D01*
X128945779Y-47755391D01*
X128657327Y-47635911D01*
X128351109Y-47575000D01*
X128038891Y-47575000D01*
X127732673Y-47635911D01*
X127444221Y-47755391D01*
X127184621Y-47928850D01*
X126963850Y-48149621D01*
X126810000Y-48379874D01*
X126656150Y-48149621D01*
X126435379Y-47928850D01*
X126175779Y-47755391D01*
X125887327Y-47635911D01*
X125581109Y-47575000D01*
X125268891Y-47575000D01*
X124962673Y-47635911D01*
X124674221Y-47755391D01*
X124414621Y-47928850D01*
X124193850Y-48149621D01*
X124040000Y-48379874D01*
X123886150Y-48149621D01*
X123665379Y-47928850D01*
X123405779Y-47755391D01*
X123117327Y-47635911D01*
X122811109Y-47575000D01*
X122498891Y-47575000D01*
X122192673Y-47635911D01*
X121904221Y-47755391D01*
X121644621Y-47928850D01*
X121423850Y-48149621D01*
X121270000Y-48379874D01*
X121116150Y-48149621D01*
X120895379Y-47928850D01*
X120635779Y-47755391D01*
X120347327Y-47635911D01*
X120041109Y-47575000D01*
X119728891Y-47575000D01*
X119422673Y-47635911D01*
X119134221Y-47755391D01*
X118874621Y-47928850D01*
X118653850Y-48149621D01*
X118480391Y-48409221D01*
X118360911Y-48697673D01*
X118300000Y-49003891D01*
X118300000Y-49316109D01*
X118360911Y-49622327D01*
X118480391Y-49910779D01*
X118653850Y-50170379D01*
X118874621Y-50391150D01*
X119065324Y-50518573D01*
X118962327Y-50475911D01*
X118656109Y-50415000D01*
X118343891Y-50415000D01*
X118037673Y-50475911D01*
X117749221Y-50595391D01*
X117489621Y-50768850D01*
X117268850Y-50989621D01*
X117095391Y-51249221D01*
X116975911Y-51537673D01*
X116915000Y-51843891D01*
X113869583Y-51843891D01*
X113880107Y-51828141D01*
X114078739Y-51348601D01*
X114180000Y-50839525D01*
X114180000Y-50320475D01*
X114078739Y-49811399D01*
X113880107Y-49331859D01*
X113591738Y-48900285D01*
X113224715Y-48533262D01*
X112793141Y-48244893D01*
X112313601Y-48046261D01*
X111804525Y-47945000D01*
X111285475Y-47945000D01*
X110776399Y-48046261D01*
X110296859Y-48244893D01*
X109865285Y-48533262D01*
X109498262Y-48900285D01*
X109209893Y-49331859D01*
X109011261Y-49811399D01*
X108910000Y-50320475D01*
X76660000Y-50320475D01*
X76660000Y-44783645D01*
X141282520Y-44783645D01*
X141282520Y-45066315D01*
X141337667Y-45343554D01*
X141445840Y-45604707D01*
X141602883Y-45839739D01*
X141802761Y-46039617D01*
X142037793Y-46196660D01*
X142298946Y-46304833D01*
X142576185Y-46359980D01*
X142858855Y-46359980D01*
X143136094Y-46304833D01*
X143397247Y-46196660D01*
X143632279Y-46039617D01*
X143832157Y-45839739D01*
X143989200Y-45604707D01*
X144037050Y-45489187D01*
X144084900Y-45604707D01*
X144241943Y-45839739D01*
X144441821Y-46039617D01*
X144676853Y-46196660D01*
X144938006Y-46304833D01*
X145215245Y-46359980D01*
X145497915Y-46359980D01*
X145775154Y-46304833D01*
X146036307Y-46196660D01*
X146271339Y-46039617D01*
X146471217Y-45839739D01*
X146628260Y-45604707D01*
X146676110Y-45489187D01*
X146723960Y-45604707D01*
X146881003Y-45839739D01*
X147080881Y-46039617D01*
X147315913Y-46196660D01*
X147577066Y-46304833D01*
X147854305Y-46359980D01*
X148136975Y-46359980D01*
X148414214Y-46304833D01*
X148675367Y-46196660D01*
X148910399Y-46039617D01*
X149110277Y-45839739D01*
X149267320Y-45604707D01*
X149315170Y-45489187D01*
X149363020Y-45604707D01*
X149520063Y-45839739D01*
X149719941Y-46039617D01*
X149954973Y-46196660D01*
X150216126Y-46304833D01*
X150493365Y-46359980D01*
X150776035Y-46359980D01*
X151053274Y-46304833D01*
X151314427Y-46196660D01*
X151549459Y-46039617D01*
X151749337Y-45839739D01*
X151906380Y-45604707D01*
X152014553Y-45343554D01*
X152069700Y-45066315D01*
X152069700Y-44800245D01*
X158794360Y-44800245D01*
X158794360Y-45082915D01*
X158849507Y-45360154D01*
X158957680Y-45621307D01*
X159114723Y-45856339D01*
X159314601Y-46056217D01*
X159549633Y-46213260D01*
X159810786Y-46321433D01*
X160088025Y-46376580D01*
X160370695Y-46376580D01*
X160647934Y-46321433D01*
X160909087Y-46213260D01*
X161144119Y-46056217D01*
X161343997Y-45856339D01*
X161501040Y-45621307D01*
X161547580Y-45508950D01*
X161595660Y-45625027D01*
X161752703Y-45860059D01*
X161952581Y-46059937D01*
X162187613Y-46216980D01*
X162448766Y-46325153D01*
X162726005Y-46380300D01*
X163008675Y-46380300D01*
X163285914Y-46325153D01*
X163547067Y-46216980D01*
X163782099Y-46059937D01*
X163981977Y-45860059D01*
X164139020Y-45625027D01*
X164186870Y-45509507D01*
X164234720Y-45625027D01*
X164391763Y-45860059D01*
X164591641Y-46059937D01*
X164826673Y-46216980D01*
X165087826Y-46325153D01*
X165365065Y-46380300D01*
X165647735Y-46380300D01*
X165924974Y-46325153D01*
X166186127Y-46216980D01*
X166421159Y-46059937D01*
X166621037Y-45860059D01*
X166778080Y-45625027D01*
X166825930Y-45509507D01*
X166873780Y-45625027D01*
X167030823Y-45860059D01*
X167230701Y-46059937D01*
X167465733Y-46216980D01*
X167726886Y-46325153D01*
X168004125Y-46380300D01*
X168286795Y-46380300D01*
X168564034Y-46325153D01*
X168825187Y-46216980D01*
X169060219Y-46059937D01*
X169260097Y-45860059D01*
X169417140Y-45625027D01*
X169525313Y-45363874D01*
X169580460Y-45086635D01*
X169580460Y-44803965D01*
X169525313Y-44526726D01*
X169417140Y-44265573D01*
X169260097Y-44030541D01*
X169060219Y-43830663D01*
X168859591Y-43696608D01*
X168886974Y-43681971D01*
X168958557Y-43438002D01*
X168145460Y-42624905D01*
X167332363Y-43438002D01*
X167403946Y-43681971D01*
X167432801Y-43695624D01*
X167230701Y-43830663D01*
X167030823Y-44030541D01*
X166873780Y-44265573D01*
X166825930Y-44381093D01*
X166778080Y-44265573D01*
X166621037Y-44030541D01*
X166421159Y-43830663D01*
X166220531Y-43696608D01*
X166247914Y-43681971D01*
X166319497Y-43438002D01*
X165506400Y-42624905D01*
X164693303Y-43438002D01*
X164764886Y-43681971D01*
X164793741Y-43695624D01*
X164591641Y-43830663D01*
X164391763Y-44030541D01*
X164234720Y-44265573D01*
X164186870Y-44381093D01*
X164139020Y-44265573D01*
X163981977Y-44030541D01*
X163782099Y-43830663D01*
X163581471Y-43696608D01*
X163608854Y-43681971D01*
X163680437Y-43438002D01*
X162867340Y-42624905D01*
X162054243Y-43438002D01*
X162125826Y-43681971D01*
X162154681Y-43695624D01*
X161952581Y-43830663D01*
X161752703Y-44030541D01*
X161595660Y-44265573D01*
X161549120Y-44377930D01*
X161501040Y-44261853D01*
X161343997Y-44026821D01*
X161144119Y-43826943D01*
X160943491Y-43692888D01*
X160970874Y-43678251D01*
X161042457Y-43434282D01*
X160229360Y-42621185D01*
X159416263Y-43434282D01*
X159487846Y-43678251D01*
X159516701Y-43691904D01*
X159314601Y-43826943D01*
X159114723Y-44026821D01*
X158957680Y-44261853D01*
X158849507Y-44523006D01*
X158794360Y-44800245D01*
X152069700Y-44800245D01*
X152069700Y-44783645D01*
X152014553Y-44506406D01*
X151906380Y-44245253D01*
X151749337Y-44010221D01*
X151549459Y-43810343D01*
X151348831Y-43676288D01*
X151376214Y-43661651D01*
X151447797Y-43417682D01*
X150634700Y-42604585D01*
X149821603Y-43417682D01*
X149893186Y-43661651D01*
X149922041Y-43675304D01*
X149719941Y-43810343D01*
X149520063Y-44010221D01*
X149363020Y-44245253D01*
X149315170Y-44360773D01*
X149267320Y-44245253D01*
X149110277Y-44010221D01*
X148910399Y-43810343D01*
X148709771Y-43676288D01*
X148737154Y-43661651D01*
X148808737Y-43417682D01*
X147995640Y-42604585D01*
X147182543Y-43417682D01*
X147254126Y-43661651D01*
X147282981Y-43675304D01*
X147080881Y-43810343D01*
X146881003Y-44010221D01*
X146723960Y-44245253D01*
X146676110Y-44360773D01*
X146628260Y-44245253D01*
X146471217Y-44010221D01*
X146271339Y-43810343D01*
X146070711Y-43676288D01*
X146098094Y-43661651D01*
X146169677Y-43417682D01*
X145356580Y-42604585D01*
X144543483Y-43417682D01*
X144615066Y-43661651D01*
X144643921Y-43675304D01*
X144441821Y-43810343D01*
X144241943Y-44010221D01*
X144084900Y-44245253D01*
X144037050Y-44360773D01*
X143989200Y-44245253D01*
X143832157Y-44010221D01*
X143632279Y-43810343D01*
X143431651Y-43676288D01*
X143459034Y-43661651D01*
X143530617Y-43417682D01*
X142717520Y-42604585D01*
X141904423Y-43417682D01*
X141976006Y-43661651D01*
X142004861Y-43675304D01*
X141802761Y-43810343D01*
X141602883Y-44010221D01*
X141445840Y-44245253D01*
X141337667Y-44506406D01*
X141282520Y-44783645D01*
X76660000Y-44783645D01*
X76660000Y-44032279D01*
X76707670Y-43546107D01*
X76839489Y-43109502D01*
X77053600Y-42706815D01*
X77341848Y-42353388D01*
X77693261Y-42062673D01*
X78094439Y-41845758D01*
X78530113Y-41710894D01*
X79014344Y-41660000D01*
X141560826Y-41660000D01*
X141480849Y-41683466D01*
M02*
